<?xml version="1.0" encoding="UTF-8" standalone="no"?>
<!DOCTYPE svg  PUBLIC '-//W3C//DTD SVG 1.1//EN'  'http://www.w3.org/Graphics/SVG/1.1/DTD/svg11.dtd'>
<svg xmlns="http://www.w3.org/2000/svg">
<defs>
<font id="OpenSans-CondensedBold" horiz-adv-x="948">
<font-face underline-position="-103" font-weight="700" descent="-410" panose-1="2 11 8 6 3 5 4 2 2 4" units-per-em="2048" unicode-range="U+0020-20AC" font-stretch="condensed" bbox="-373 -492 1739 1907" x-height="1114" underline-thickness="102" font-family="OpenSans" ascent="1638" cap-height="1462"/>
<missing-glyph horiz-adv-x="2048"/>
<glyph glyph-name=".notdef" horiz-adv-x="2048"/>
<glyph glyph-name=".null" horiz-adv-x="0"/>
<glyph glyph-name="nonmarkingreturn" horiz-adv-x="2048"/>
<glyph glyph-name="space" horiz-adv-x="506" unicode=" "/>
<glyph glyph-name="exclam" horiz-adv-x="555" unicode="!" d="M111 137q0 78 41.5 121t123.5 43t124 -42.5t42 -121.5q0 -78 -43.5 -121t-122.5 -43q-81 0 -123 43.5t-42 120.5zM387 471h-219l-49 991h319z"/>
<glyph glyph-name="quotedbl" horiz-adv-x="913" unicode='&quot;' d="M793 1462l-41 -528h-181l-41 528h263zM383 1462l-41 -528h-180l-41 528h262z"/>
<glyph glyph-name="numbersign" horiz-adv-x="1114" unicode="#" d="M449 604h180l37 252h-183zM856 856l-37 -252h203v-194h-229l-60 -410h-192l61 410h-182l-58 -410h-192l59 410h-188v194h217l37 252h-201v193h230l59 413h188l-59 -413h182l62 413h188l-59 -413h190v-193h-219z"/>
<glyph glyph-name="dollar" d="M309 1044q0 -51 24 -82.5t81 -54.5v262q-105 -16 -105 -125zM639 451q0 45 -19.5 74.5t-89.5 64.5v-279q109 19 109 140zM874 457q0 -159 -89.5 -254.5t-254.5 -112.5v-209h-116v205q-190 6 -340 84v246q80 -47 169 -77t171 -34v338l-35 16q-170 81 -237.5 167.5 t-67.5 217.5q0 150 89 241.5t251 109.5v161h116v-159q155 -10 308 -86l-80 -213q-128 62 -228 71v-317q31 -12 31 -14q127 -55 190 -106.5t93 -118t30 -156.5z" unicode="$"/>
<glyph glyph-name="percent" horiz-adv-x="1554" unicode="%" d="M1182 1462l-604 -1462h-207l602 1462h209zM1491 442q0 -226 -76 -343t-219 -117q-150 0 -219.5 114.5t-69.5 341.5q0 224 71.5 342.5t217.5 118.5q295 0 295 -457zM1120 440q0 -139 18 -202.5t60 -63.5t61 63.5t19 202.5t-19.5 202t-60.5 63t-59.5 -63t-18.5 -202z M647 1026q0 -226 -75.5 -343.5t-219.5 -117.5q-149 0 -219 115t-70 342q0 461 289 461q295 0 295 -457zM276 1024q0 -139 18 -202.5t60 -63.5t61 63.5t19 202.5t-19.5 202.5t-60.5 63.5q-42 0 -60 -63.5t-18 -202.5z"/>
<glyph glyph-name="ampersand" horiz-adv-x="1190" unicode="&amp;" d="M614 1133q0 65 -26.5 94.5t-63.5 29.5q-46 0 -73 -32.5t-27 -94.5q0 -55 23.5 -101.5t58.5 -94.5q61 47 84.5 91t23.5 108zM328 416q0 -93 44 -146t120 -53q100 0 176 74l-240 346q-100 -90 -100 -221zM872 0l-71 102q-136 -122 -338 -122q-192 0 -298 109t-106 302 q0 248 244 416q-77 119 -102 188t-25 146q0 156 97 249t255 93q152 0 242 -86.5t90 -239.5q0 -105 -55 -199.5t-184 -191.5l204 -287q34 62 53 138t33 151h232q-38 -280 -166 -498l194 -270h-299z"/>
<glyph glyph-name="quotesingle" horiz-adv-x="504" unicode="&apos;" d="M383 1462l-41 -528h-180l-41 528h262z"/>
<glyph glyph-name="parenleft" horiz-adv-x="666" unicode="(" d="M74 561q0 265 77.5 496t223.5 405h235q-140 -193 -212 -424t-72 -475q0 -247 75 -477t207 -410h-233q-147 170 -224 397t-77 488z"/>
<glyph glyph-name="parenright" horiz-adv-x="666" unicode=")" d="M592 561q0 -263 -77.5 -490t-223.5 -395h-234q135 184 209 412.5t74 474.5q0 244 -72 475t-213 424h236q147 -175 224 -406.5t77 -494.5z"/>
<glyph glyph-name="asterisk" horiz-adv-x="952" unicode="*" d="M594 1556l-37 -307l311 86l33 -225l-285 -18l185 -246l-199 -109l-129 260l-117 -260l-204 109l182 246l-281 22l37 221l303 -86l-37 307h238z"/>
<glyph glyph-name="plus" horiz-adv-x="918" unicode="+" d="M360 618h-254v207h254v373h197v-373h254v-207h-254v-368h-197v368z"/>
<glyph glyph-name="comma" horiz-adv-x="553" unicode="," d="M430 215q-52 -202 -176 -479h-203q65 266 101 502h264z"/>
<glyph glyph-name="hyphen" horiz-adv-x="647" unicode="-" d="M72 432v234h503v-234h-503z"/>
<glyph glyph-name="period" horiz-adv-x="553" unicode="." d="M111 137q0 78 41.5 121t123.5 43t124 -42.5t42 -121.5q0 -78 -43.5 -121t-122.5 -43q-81 0 -123 43.5t-42 120.5z"/>
<glyph glyph-name="slash" horiz-adv-x="829" unicode="/" d="M817 1462l-545 -1462h-256l545 1462h256z"/>
<glyph glyph-name="zero" d="M346 731q0 -307 26.5 -413.5t100.5 -106.5q50 0 77.5 46t39.5 152.5t12 321.5q0 302 -28 412t-101 110q-74 0 -100.5 -109.5t-26.5 -412.5zM874 731q0 -397 -95.5 -574t-307.5 -177t-304.5 178t-92.5 573q0 396 97 575t304 179q211 0 305 -175t94 -579z" unicode="0"/>
<glyph glyph-name="one" d="M729 0h-268v858q0 140 14 322q-7 -10 -51.5 -61t-173.5 -183l-152 166l389 360h242v-1462z" unicode="1"/>
<glyph glyph-name="two" d="M858 0h-784v203l260 368q107 152 147 225.5t59 141t19 139.5q0 84 -37.5 126t-97.5 42q-53 0 -99 -28t-112 -101l-152 160q105 119 195 163t195 44q177 0 276.5 -104t99.5 -289q0 -84 -18 -159t-54.5 -150.5t-91.5 -157t-284 -373.5v-8h479v-242z" unicode="2"/>
<glyph glyph-name="three" d="M829 1133q0 -138 -68 -231.5t-192 -129.5v-8q138 -22 213.5 -108t75.5 -234q0 -202 -125.5 -322t-343.5 -120q-194 0 -326 69v244q66 -40 143 -63t148 -23q116 0 175 53.5t59 169.5q0 219 -269 219h-83v203h79q119 0 182.5 56t63.5 167q0 87 -40.5 131.5t-114.5 44.5 q-113 0 -220 -96l-123 180q148 148 373 148q185 0 289 -93.5t104 -256.5z" unicode="3"/>
<glyph glyph-name="four" d="M514 532v308l5 136l7 130h-8q-35 -109 -76 -197l-176 -377h248zM918 307h-148v-307h-256v307h-477v221l442 934h291v-930h148v-225z" unicode="4"/>
<glyph glyph-name="five" d="M500 915q165 0 262.5 -115t97.5 -315q0 -239 -121.5 -372t-337.5 -133q-192 0 -311 73v254q51 -37 131.5 -65.5t149.5 -28.5q215 0 215 250q0 233 -209 233q-83 0 -176 -32l-88 65l45 733h624v-243h-391l-20 -316q56 12 129 12z" unicode="5"/>
<glyph glyph-name="six" d="M475 209q60 0 96.5 66t36.5 206q0 113 -32.5 178.5t-98.5 65.5q-59 0 -96 -61t-37 -154q0 -146 34.5 -223.5t96.5 -77.5zM74 621q0 447 139 653.5t424 206.5q45 0 90 -5.5t68 -11.5v-225q-69 16 -136 16q-114 0 -187 -50t-111 -149.5t-46 -279.5h11q35 83 96 125.5 t141 42.5q147 0 229 -119.5t82 -341.5q0 -232 -108 -367.5t-293 -135.5q-196 0 -297.5 162t-101.5 479z" unicode="6"/>
<glyph glyph-name="seven" d="M180 0l410 1219h-510v241h784v-184l-403 -1276h-281z" unicode="7"/>
<glyph glyph-name="eight" d="M473 1270q-57 0 -86 -41.5t-29 -118.5q0 -66 24 -115t93 -104q66 51 90.5 102t24.5 117q0 160 -117 160zM330 385q0 -88 36.5 -140t104.5 -52q74 0 110.5 52t36.5 140q0 63 -29 119t-112 129l-14 14q-65 -48 -99 -109.5t-34 -152.5zM475 1481q171 0 273 -97t102 -264 q0 -103 -47.5 -186.5t-161.5 -159.5q128 -91 182 -186.5t54 -208.5q0 -179 -110 -289t-292 -110q-189 0 -296 101.5t-107 289.5q0 126 53.5 222.5t165.5 168.5q-104 83 -148.5 167.5t-44.5 190.5q0 164 105.5 262.5t271.5 98.5z" unicode="8"/>
<glyph glyph-name="nine" d="M465 1249q-60 0 -95.5 -65t-35.5 -205q0 -115 31 -179.5t94 -64.5q57 0 99 65.5t42 149.5q0 130 -37 214.5t-98 84.5zM868 825q0 -845 -565 -845q-94 0 -156 16v229q68 -22 127 -22q167 0 253.5 116t95.5 365h-9q-32 -79 -91.5 -123.5t-141.5 -44.5q-149 0 -231 122 t-82 335q0 234 107.5 371t287.5 137q196 0 300.5 -169t104.5 -487z" unicode="9"/>
<glyph glyph-name="colon" horiz-adv-x="553" unicode=":" d="M111 973q0 78 41.5 121t123.5 43t124 -42.5t42 -121.5q0 -78 -43.5 -121t-122.5 -43q-81 0 -123 43.5t-42 120.5zM111 137q0 78 41.5 121t123.5 43t124 -42.5t42 -121.5q0 -78 -43.5 -121t-122.5 -43q-81 0 -123 43.5t-42 120.5z"/>
<glyph glyph-name="semicolon" horiz-adv-x="553" unicode=";" d="M111 973q0 78 41.5 121t123.5 43t124 -42.5t42 -121.5q0 -78 -43.5 -121t-122.5 -43q-81 0 -123 43.5t-42 120.5zM416 238l14 -23q-52 -202 -176 -479h-203q65 266 101 502h264z"/>
<glyph glyph-name="less" horiz-adv-x="918" unicode="&lt;" d="M811 209l-705 436v156l705 434v-225l-487 -287l487 -289v-225z"/>
<glyph glyph-name="equal" horiz-adv-x="918" unicode="=" d="M106 422v207h705v-207h-705zM106 815v205h705v-205h-705z"/>
<glyph glyph-name="greater" horiz-adv-x="918" unicode="&gt;" d="M106 434l490 289l-490 287v225l705 -434v-156l-705 -436v225z"/>
<glyph glyph-name="question" horiz-adv-x="782" unicode="?" d="M172 137q0 79 42.5 121.5t123.5 42.5q82 0 124 -43.5t42 -120.5q0 -76 -43 -120t-123 -44t-123 43t-43 121zM219 471v70q0 96 29.5 167.5t107.5 153.5q74 81 94.5 127t20.5 117q0 65 -30 106t-95 41q-108 0 -227 -77l-94 200q157 107 348 107q165 0 260.5 -91.5 t95.5 -254.5q0 -114 -33 -193.5t-137 -191.5q-67 -73 -85.5 -112.5t-18.5 -107.5v-61h-236z"/>
<glyph glyph-name="at" horiz-adv-x="1485" unicode="@" d="M637 604q0 -96 22.5 -148.5t65.5 -52.5q50 0 74 68.5t32 210.5l13 229q-24 11 -62 11q-65 0 -105 -90t-40 -228zM1411 748q0 -244 -82.5 -380.5t-230.5 -136.5q-69 0 -121 38.5t-68 101.5h-8q-34 -63 -87 -101.5t-122 -38.5q-123 0 -192.5 92.5t-69.5 280.5 q0 223 98.5 356.5t264.5 133.5q118 0 256 -43l-21 -466v-38q0 -82 17.5 -113t54.5 -31q50 0 79 93.5t29 253.5q0 274 -110 411t-312 137q-149 0 -265 -88t-179 -247.5t-63 -358.5q0 -279 122.5 -435.5t337.5 -156.5q178 0 365 90v-182q-165 -88 -367 -88t-352.5 91.5 t-230.5 264.5t-80 406q0 260 89.5 462t253.5 311.5t374 109.5q294 0 457 -192t163 -537z"/>
<glyph glyph-name="A" horiz-adv-x="1094" unicode="A" d="M686 610l-78 340q-7 31 -31.5 155.5t-29.5 166.5q-13 -86 -33 -189.5t-104 -472.5h276zM821 0l-84 369h-381l-84 -369h-272l362 1468h369l363 -1468h-273z"/>
<glyph glyph-name="B" horiz-adv-x="1038" unicode="B" d="M385 647v-409h137q85 0 126.5 52t41.5 161q0 196 -172 196h-133zM385 874h125q86 0 121 46t35 137t-40 130.5t-126 39.5h-115v-353zM129 1462h373q228 0 332 -88.5t104 -281.5q0 -127 -55 -212.5t-150 -103.5v-10q124 -31 179 -116t55 -226q0 -199 -106.5 -311.5 t-291.5 -112.5h-440v1462z"/>
<glyph glyph-name="C" d="M614 1245q-117 0 -184.5 -137t-67.5 -381q0 -508 265 -508q116 0 243 74v-242q-107 -71 -274 -71q-247 0 -379.5 196.5t-132.5 552.5t136.5 555t379.5 199q80 0 153.5 -22t157.5 -77l-90 -221q-45 31 -96 56.5t-111 25.5z" unicode="C"/>
<glyph glyph-name="D" horiz-adv-x="1143" unicode="D" d="M780 737q0 490 -270 490h-109v-989h88q149 0 220 124.5t71 374.5zM1059 745q0 -362 -147.5 -553.5t-424.5 -191.5h-358v1462h391q255 0 397 -188.5t142 -528.5z"/>
<glyph glyph-name="E" horiz-adv-x="872" unicode="E" d="M788 0h-659v1462h659v-235h-387v-348h359v-236h-359v-405h387v-238z"/>
<glyph glyph-name="F" horiz-adv-x="838" unicode="F" d="M399 0h-270v1462h655v-235h-385v-406h359v-235h-359v-586z"/>
<glyph glyph-name="G" horiz-adv-x="1112" unicode="G" d="M571 811h447v-750q-190 -81 -404 -81q-255 0 -392.5 194t-137.5 559q0 352 157.5 551t440.5 199q175 0 334 -90l-86 -222q-124 72 -232 72q-155 0 -245.5 -138.5t-90.5 -377.5q0 -246 65.5 -377t190.5 -131q66 0 134 17v335h-181v240z"/>
<glyph glyph-name="H" horiz-adv-x="1161" unicode="H" d="M1032 0h-272v641h-359v-641h-272v1462h272v-581h359v581h272v-1462z"/>
<glyph glyph-name="I" horiz-adv-x="614" unicode="I" d="M178 0v1462h256v-1462h-256z"/>
<glyph glyph-name="J" horiz-adv-x="530" unicode="J" d="M14 -422q-106 0 -168 25v237q65 -20 123 -20q83 0 121.5 53t38.5 158v1431h272v-1417q0 -144 -48.5 -250t-137 -161.5t-201.5 -55.5z"/>
<glyph glyph-name="K" horiz-adv-x="1040" unicode="K" d="M1040 0h-290l-240 625l-109 -109v-516h-272v1462h272v-725l95 219l249 506h291l-338 -633z"/>
<glyph glyph-name="L" horiz-adv-x="823" unicode="L" d="M129 0v1462h272v-1224h377v-238h-649z"/>
<glyph glyph-name="M" horiz-adv-x="1606" unicode="M" d="M651 0l-278 1245h-11q19 -144 19 -264v-981h-252v1462h418l250 -1149h8l248 1149h424v-1462h-258v991q0 123 14 252h-8l-277 -1243h-297z"/>
<glyph glyph-name="N" horiz-adv-x="1282" unicode="N" d="M1153 0h-332l-452 1059h-13q25 -121 25 -260v-799h-252v1462h334l448 -1048h11q-19 105 -19 250v798h250v-1462z"/>
<glyph glyph-name="O" horiz-adv-x="1219" unicode="O" d="M362 733q0 -250 63 -381t185 -131q246 0 246 512t-244 512q-124 0 -187 -130.5t-63 -381.5zM1135 733q0 -363 -136 -558t-389 -195q-254 0 -390 194.5t-136 560.5q0 363 136 556.5t392 193.5q253 0 388 -194.5t135 -557.5z"/>
<glyph glyph-name="P" horiz-adv-x="981" unicode="P" d="M401 766h52q100 0 149 55t49 180q0 115 -45 170.5t-139 55.5h-66v-461zM926 1012q0 -233 -117.5 -357.5t-339.5 -124.5h-68v-530h-272v1462h371q426 0 426 -450z"/>
<glyph glyph-name="Q" horiz-adv-x="1219" unicode="Q" d="M362 733q0 -250 63 -381t185 -131q246 0 246 512t-244 512q-124 0 -187 -130.5t-63 -381.5zM1135 733q0 -251 -66.5 -424t-196.5 -258l269 -399h-314l-202 328h-15q-254 0 -390 194.5t-136 560.5q0 363 136 556.5t392 193.5q253 0 388 -194.5t135 -557.5z"/>
<glyph glyph-name="R" horiz-adv-x="1024" unicode="R" d="M401 803h70q96 0 138 54.5t42 162.5q0 112 -44.5 159.5t-137.5 47.5h-68v-424zM401 569v-569h-272v1462h356q226 0 333.5 -107t107.5 -327q0 -277 -187 -387l281 -641h-291l-231 569h-97z"/>
<glyph glyph-name="S" horiz-adv-x="846" unicode="S" d="M795 403q0 -205 -103.5 -314t-298.5 -109q-191 0 -325 75v269q164 -107 301 -107q78 0 117.5 43t39.5 117q0 73 -47 133.5t-155 134.5q-94 65 -142.5 124.5t-75 133.5t-26.5 172q0 188 104.5 298t280.5 110q168 0 323 -94l-90 -218q-48 28 -100.5 50t-112.5 22 q-66 0 -101.5 -43.5t-35.5 -118.5q0 -74 42.5 -129t148.5 -125q143 -96 199.5 -196t56.5 -228z"/>
<glyph glyph-name="T" horiz-adv-x="885" unicode="T" d="M578 0h-271v1223h-280v239h831v-239h-280v-1223z"/>
<glyph glyph-name="U" horiz-adv-x="1151" unicode="U" d="M1028 1462v-946q0 -261 -118 -398.5t-341 -137.5q-218 0 -332 136.5t-114 403.5v942h270v-962q0 -279 185 -279q86 0 133 71t47 202v968h270z"/>
<glyph glyph-name="V" horiz-adv-x="1032" unicode="V" d="M758 1462h274l-344 -1462h-346l-342 1462h274l191 -893q26 -114 51 -327q21 181 53 327z"/>
<glyph glyph-name="W" horiz-adv-x="1622" unicode="W" d="M1341 0h-340l-143 766q-33 157 -47 371l-8 -74l-41 -301l-139 -762h-340l-265 1462h267l131 -825q19 -124 51 -389q25 268 47 383l156 831h282l156 -831q31 -185 49 -385q35 296 51 391l127 825h269z"/>
<glyph glyph-name="X" horiz-adv-x="969" unicode="X" d="M969 0h-283l-209 524l-194 -524h-283l334 760l-309 702h274l193 -481l167 481h285l-309 -714z"/>
<glyph glyph-name="Y" horiz-adv-x="961" unicode="Y" d="M481 885l195 577h285l-347 -876v-586h-268v575l-346 887h287z"/>
<glyph glyph-name="Z" horiz-adv-x="877" unicode="Z" d="M834 0h-791v190l467 1035h-453v237h762v-190l-467 -1034h482v-238z"/>
<glyph glyph-name="bracketleft" horiz-adv-x="649" unicode="[" d="M602 -324h-469v1786h469v-198h-223v-1389h223v-199z"/>
<glyph glyph-name="backslash" horiz-adv-x="829" unicode="\" d="M272 1462l545 -1462h-258l-545 1462h258z"/>
<glyph glyph-name="bracketright" horiz-adv-x="649" unicode="]" d="M47 -125h223v1389h-223v198h469v-1786h-469v199z"/>
<glyph glyph-name="asciicircum" horiz-adv-x="1090" unicode="^" d="M14 526l437 944h135l493 -944h-225l-330 660l-288 -660h-222z"/>
<glyph glyph-name="underscore" horiz-adv-x="696" unicode="_" d="M700 -324h-704v140h704v-140z"/>
<glyph glyph-name="grave" horiz-adv-x="1114" unicode="`" d="M614 1241q-75 60 -176 160.5t-127 146.5v21h318q27 -60 80.5 -155.5t91.5 -145.5v-27h-187z"/>
<glyph glyph-name="a" horiz-adv-x="956" unicode="a" d="M428 188q73 0 116.5 65.5t43.5 174.5v94l-82 -4q-91 -5 -133.5 -52t-42.5 -140q0 -138 98 -138zM659 0l-53 152h-6q-59 -98 -122 -135t-159 -37q-123 0 -193.5 92t-70.5 256q0 176 96.5 261.5t288.5 94.5l148 6v80q0 156 -135 156q-100 0 -230 -78l-92 184 q166 105 361 105q177 0 269.5 -101.5t92.5 -287.5v-748h-195z"/>
<glyph glyph-name="b" horiz-adv-x="1016" unicode="b" d="M524 909q-76 0 -109.5 -71t-35.5 -250v-27q0 -194 34.5 -273t112.5 -79q144 0 144 354q0 346 -146 346zM616 1135q152 0 239 -151t87 -425q0 -277 -87.5 -428t-242.5 -151q-75 0 -132.5 32.5t-108.5 114.5h-17l-45 -127h-196v1556h266v-364q0 -23 -1 -48t-13 -175h14 q49 92 106 129t131 37z"/>
<glyph glyph-name="c" horiz-adv-x="760" unicode="c" d="M481 -20q-199 0 -303 145t-104 426q0 294 98.5 439t304.5 145q62 0 130 -18t122 -52l-76 -207q-83 49 -147 49q-85 0 -122.5 -88.5t-37.5 -265.5q0 -173 37 -258.5t121 -85.5q100 0 209 70v-234q-105 -65 -232 -65z"/>
<glyph glyph-name="d" horiz-adv-x="1016" unicode="d" d="M492 205q74 0 108 67.5t37 245.5v35q0 194 -34.5 273t-113.5 79q-74 0 -107.5 -90.5t-33.5 -263.5t34 -259.5t110 -86.5zM406 -20q-154 0 -243 152t-89 423q0 272 87 426t240 154q76 0 131.5 -37.5t102.5 -126.5h16q-12 152 -12 213v372h266v-1556h-198l-45 145h-9 q-85 -165 -247 -165z"/>
<glyph glyph-name="e" horiz-adv-x="942" unicode="e" d="M485 930q-57 0 -94 -60.5t-43 -187.5h270q-2 122 -37 185t-96 63zM524 -20q-209 0 -329.5 148.5t-120.5 420.5q0 276 109 431t304 155q182 0 287 -132.5t105 -371.5v-142h-535q3 -149 61 -221.5t160 -72.5q130 0 266 81v-219q-128 -77 -307 -77z"/>
<glyph glyph-name="f" horiz-adv-x="612" unicode="f" d="M608 903h-184v-903h-266v903h-129v133l129 80v84q0 186 77 276.5t248 90.5q108 0 201 -45l-70 -203q-50 24 -102 24q-46 0 -67 -36t-21 -111v-82h184v-211z"/>
<glyph glyph-name="g" horiz-adv-x="936" unicode="g" d="M342 750q0 -197 111 -197q108 0 108 199q0 204 -108 204q-111 0 -111 -206zM260 -162q0 -66 41.5 -101.5t118.5 -35.5q121 0 181.5 46t60.5 126q0 63 -32.5 89t-121.5 26h-129q-54 0 -86.5 -40.5t-32.5 -109.5zM915 1112v-156l-133 -30q39 -70 39 -176q0 -177 -96 -277 t-268 -100q-50 0 -74 8q-19 -17 -36 -38t-17 -52q0 -70 121 -70h161q142 0 218.5 -76.5t76.5 -230.5q0 -194 -130 -300t-374 -106q-185 0 -285 80.5t-100 229.5q0 93 57 163.5t158 102.5q-51 20 -83.5 62t-32.5 98q0 34 10 61.5t28.5 52t75.5 72.5q-69 42 -109 129t-40 193 q0 183 96 283t275 100q34 0 78 -7.5t67 -15.5h317z"/>
<glyph glyph-name="h" horiz-adv-x="1038" unicode="h" d="M668 0v664q0 245 -123 245q-92 0 -129 -96.5t-37 -277.5v-535h-266v1556h266v-346q0 -67 -12 -239h14q80 164 246 164q153 0 231 -103.5t78 -304.5v-727h-268z"/>
<glyph glyph-name="i" horiz-adv-x="496" unicode="i" d="M104 1405q0 66 38.5 104.5t107.5 38.5q65 0 104 -38.5t39 -104.5q0 -68 -40 -105.5t-103 -37.5q-66 0 -106 37.5t-40 105.5zM381 0h-266v1114h266v-1114z"/>
<glyph glyph-name="j" horiz-adv-x="500" unicode="j" d="M111 1405q0 66 38.5 104.5t106.5 38.5q67 0 105 -39t38 -104q0 -67 -39 -105t-104 -38t-105 37t-40 106zM80 -492q-84 0 -139 25v221q46 -18 86 -18q94 0 94 170v1208h266v-1243q0 -174 -80.5 -268.5t-226.5 -94.5z"/>
<glyph glyph-name="k" horiz-adv-x="965" unicode="k" d="M375 600l67 133l220 381h282l-282 -457l301 -657h-279l-201 471l-104 -94v-377h-266v1556h266v-733l-12 -223h8z"/>
<glyph glyph-name="l" horiz-adv-x="489" unicode="l" d="M379 0h-266v1556h266v-1556z"/>
<glyph glyph-name="m" horiz-adv-x="1589" unicode="m" d="M1219 0v664q0 245 -121 245q-88 0 -126 -87.5t-38 -280.5v-541h-268v664q0 245 -123 245q-86 0 -125 -87t-39 -287v-535h-266v1114h211l32 -143h17q40 85 109.5 124.5t148.5 39.5q204 0 272 -193h10q85 193 273 193q148 0 224.5 -104t76.5 -304v-727h-268z"/>
<glyph glyph-name="n" horiz-adv-x="1038" unicode="n" d="M668 0v664q0 121 -29 183t-94 62q-86 0 -126 -85.5t-40 -288.5v-535h-266v1114h211l32 -143h17q36 77 103 120.5t157 43.5q152 0 227.5 -104t75.5 -304v-727h-268z"/>
<glyph glyph-name="o" horiz-adv-x="1012" unicode="o" d="M346 559q0 -174 38 -263t122 -89q160 0 160 352q0 175 -38.5 261.5t-121.5 86.5q-84 0 -122 -86.5t-38 -261.5zM938 559q0 -274 -116 -426.5t-318 -152.5q-128 0 -226 70t-151 201.5t-53 307.5q0 271 115 423.5t319 152.5q197 0 313.5 -155.5t116.5 -420.5z"/>
<glyph glyph-name="p" horiz-adv-x="1016" unicode="p" d="M528 909q-78 0 -112.5 -72.5t-36.5 -240.5v-35q0 -184 35 -268t116 -84q140 0 140 354q0 174 -34.5 260t-107.5 86zM610 -20q-72 0 -127.5 32.5t-103.5 114.5h-14q16 -136 16 -164v-455h-268v1606h206l46 -145h12q83 166 241 166q152 0 238 -150.5t86 -425.5 q0 -271 -89 -425t-243 -154z"/>
<glyph glyph-name="q" horiz-adv-x="1016" unicode="q" d="M487 203q79 0 113.5 72.5t36.5 240.5v37q0 184 -35 268t-115 84q-139 0 -139 -354q0 -177 33.5 -262.5t105.5 -85.5zM406 -20q-156 0 -244 152t-88 423q0 273 86.5 426.5t238.5 153.5q78 0 135 -38t103 -126h14l29 143h225v-1606h-266v469q0 36 12 168h-10 q-42 -86 -100 -125.5t-135 -39.5z"/>
<glyph glyph-name="r" horiz-adv-x="690" unicode="r" d="M588 1135q49 0 96 -15l-31 -258q-28 10 -73 10q-97 0 -149 -76.5t-52 -222.5v-573h-266v1114h219l30 -174h9q44 105 96 150t121 45z"/>
<glyph glyph-name="s" horiz-adv-x="766" unicode="s" d="M711 326q0 -163 -95.5 -254.5t-281.5 -91.5q-165 0 -273 65v231q55 -38 128.5 -63t129.5 -25q62 0 94.5 30.5t32.5 80.5q0 51 -34 89t-125 93q-121 72 -173.5 153.5t-52.5 192.5q0 142 97.5 225t267.5 83q148 0 279 -78l-87 -191q-107 58 -188 58q-51 0 -76.5 -27 t-25.5 -66q0 -45 31.5 -80t117.5 -87q104 -63 146 -107t65 -100t23 -131z"/>
<glyph glyph-name="t" horiz-adv-x="664" unicode="t" d="M500 205q56 0 121 28v-208q-65 -45 -195 -45q-145 0 -215 86.5t-70 259.5v577h-108v119l139 96l68 236h170v-240h202v-211h-202v-586q0 -112 90 -112z"/>
<glyph glyph-name="u" horiz-adv-x="1038" unicode="u" d="M715 0l-33 143h-14q-37 -76 -105.5 -119.5t-156.5 -43.5q-150 0 -227 102t-77 305v727h269v-663q0 -122 29 -184t94 -62q86 0 125.5 86t39.5 289v534h269v-1114h-213z"/>
<glyph glyph-name="v" horiz-adv-x="913" unicode="v" d="M291 0l-291 1114h276l142 -645q9 -45 21.5 -131.5t15.5 -124.5h4q1 30 8.5 86t15.5 103t154 712h276l-292 -1114h-330z"/>
<glyph glyph-name="w" horiz-adv-x="1479" unicode="w" d="M889 0l-111 647l-39 273h-4q-15 -133 -24 -192.5t-127 -727.5h-342l-222 1114h267l102 -614q18 -102 33 -299h6q2 53 14 161.5t17 139.5l110 612h342l109 -614q19 -98 33 -299h4q14 179 35 299l106 614h260l-223 -1114h-346z"/>
<glyph glyph-name="x" horiz-adv-x="889" unicode="x" d="M305 569l-278 545h276l148 -340l137 340h274l-280 -545l292 -569h-278l-158 356l-147 -356h-277z"/>
<glyph glyph-name="y" horiz-adv-x="913" unicode="y" d="M0 1114h276l154 -629q23 -84 37 -235h6q1 24 9 85.5t13 96.5t138 682h280l-319 -1194q-58 -220 -154 -316t-256 -96q-79 0 -141 17v223q41 -12 92 -12q134 0 176 176l19 70z"/>
<glyph glyph-name="z" horiz-adv-x="731" unicode="z" d="M690 0h-649v170l342 729h-320v215h613v-188l-332 -711h346v-215z"/>
<glyph glyph-name="braceleft" horiz-adv-x="737" unicode="{" d="M283 276q0 99 -67 140t-191 41v223q124 0 191 40t67 132v8v320q0 108 41.5 167.5t133 87t247.5 27.5v-211q-101 -3 -138 -37.5t-37 -107.5v-303q-3 -194 -231 -228v-12q231 -34 231 -215v-12v-303q0 -73 36.5 -108t138.5 -38v-211q-158 0 -248.5 27.5t-132 87.5 t-41.5 168v317z"/>
<glyph glyph-name="bar" horiz-adv-x="1038" unicode="|" d="M416 1552h207v-2023h-207v2023z"/>
<glyph glyph-name="braceright" horiz-adv-x="737" unicode="}" d="M457 -41q0 -156 -95.5 -219.5t-328.5 -63.5v211q102 3 139 37.5t37 108.5v303v9q0 91 59.5 146t173.5 72v12q-229 34 -233 228v303q0 74 -37 108t-139 37v211q234 0 329 -63.5t95 -218.5v-320v-8q0 -92 65.5 -132t190.5 -40v-223q-125 0 -190.5 -41t-65.5 -140v-317z"/>
<glyph glyph-name="asciitilde" horiz-adv-x="918" unicode="~" d="M264 678q-88 0 -190 -121v219q90 109 207 109q43 0 80.5 -10.5t123.5 -53.5q67 -34 99 -44.5t73 -10.5q87 0 187 121v-219q-81 -109 -207 -109q-51 0 -99.5 16.5t-107.5 47.5q-82 41 -108 48t-58 7z"/>
<glyph glyph-name="nonbreakingspace" horiz-adv-x="532" unicode=" "/>
<glyph glyph-name="exclamdown" horiz-adv-x="555" unicode="¡" d="M442 954q0 -79 -43 -121t-125 -42q-78 0 -120.5 42t-42.5 121q0 78 43.5 121t119.5 43q82 0 125 -43.5t43 -120.5zM164 621h221l51 -990h-323z"/>
<glyph glyph-name="cent" d="M786 233q-77 -50 -174 -61v-192h-166v200q-299 79 -299 557q0 252 73.5 395t225.5 179v168h166v-160q106 -16 193 -66l-78 -209q-85 50 -147 50q-85 0 -122.5 -87.5t-37.5 -267.5q0 -171 37 -257.5t121 -86.5q100 0 208 72v-234z" unicode="¢"/>
<glyph glyph-name="sterling" d="M598 1483q157 0 283 -72l-84 -211q-92 53 -183 53q-114 0 -114 -186v-213h241v-203h-241v-133q0 -91 -30.5 -158.5t-100.5 -117.5h534v-242h-827v229q92 49 124.5 108.5t32.5 156.5v157h-155v203h155v219q0 199 93.5 304.5t271.5 105.5z" unicode="£"/>
<glyph glyph-name="currency" horiz-adv-x="1112" unicode="¤" d="M356 723q0 -83 58 -141t141 -58q85 0 144 58.5t59 140.5q0 84 -59 142.5t-144 58.5q-83 0 -141 -58t-58 -143zM162 723q0 102 57 201l-129 127l137 137l127 -127q93 55 201 55q107 0 199 -57l129 129l139 -133l-129 -129q55 -93 55 -203q0 -114 -55 -203l125 -125 l-135 -135l-129 125q-93 -53 -199 -53q-120 0 -203 53l-125 -123l-135 135l127 125q-57 92 -57 201z"/>
<glyph glyph-name="yen" d="M475 844l184 618h283l-276 -751h186v-170h-244v-142h244v-170h-244v-229h-266v229h-246v170h246v142h-246v170h187l-277 751h283z" unicode="¥"/>
<glyph glyph-name="brokenbar" horiz-adv-x="1038" unicode="¦" d="M416 338h207v-809h-207v809zM416 1552h207v-809h-207v809z"/>
<glyph glyph-name="section" horiz-adv-x="872" unicode="§" d="M307 797q0 -56 32 -94t114 -87l61 -36q43 62 43 137q0 63 -49 118.5t-135 98.5q-26 -16 -46 -52t-20 -85zM94 776q0 79 34.5 142.5t94.5 103.5q-59 40 -91 106t-32 142q0 133 92.5 211t253.5 78q97 0 175.5 -20.5t150.5 -49.5l-65 -184q-63 27 -127 49t-136 22 q-58 0 -86 -28.5t-28 -73.5q0 -37 31 -71t104 -75l84 -49q125 -71 177 -149t52 -178q0 -167 -125 -260q56 -41 85.5 -90t29.5 -121q0 -148 -94 -232t-271 -84q-113 0 -187 14.5t-134 43.5v192q152 -72 295 -72q81 0 120.5 28t39.5 91q0 34 -31.5 66.5t-102.5 73.5 q-143 80 -198 130.5t-83 110t-28 133.5z"/>
<glyph glyph-name="dieresis" horiz-adv-x="1130" unicode="¨" d="M631 1403q0 60 35 94.5t98 34.5q61 0 97 -34t36 -95q0 -59 -35.5 -93t-97.5 -34t-97.5 34.5t-35.5 92.5zM233 1403q0 61 35 95t97 34t97.5 -35.5t35.5 -93.5q0 -57 -35.5 -92t-97.5 -35t-97 33.5t-35 93.5z"/>
<glyph glyph-name="copyright" horiz-adv-x="1688" unicode="©" d="M227 731q0 -165 83 -308.5t225.5 -225.5t308.5 -82t309 82t225 225t82 309t-82 308.5t-225 225.5t-309 83q-165 0 -308.5 -82.5t-226 -225.5t-82.5 -309zM92 731q0 200 100 375t275 276t377 101q197 0 370 -97t277 -272t104 -383q0 -204 -100.5 -376.5t-273 -273.5 t-377.5 -101q-207 0 -382 103.5t-272.5 276.5t-97.5 371zM887 1018q-102 0 -157.5 -75.5t-55.5 -211.5q0 -140 49.5 -214.5t163.5 -74.5q56 0 124 16.5t115 41.5v-181q-116 -55 -245 -55q-201 0 -312.5 123.5t-111.5 345.5q0 219 110 341t307 122q142 0 295 -74l-71 -161 q-111 57 -211 57z"/>
<glyph glyph-name="ordfeminine" horiz-adv-x="682" unicode="ª" d="M229 979q0 -78 64 -78q57 0 91 40t34 112v39l-72 -7q-58 -5 -87.5 -30t-29.5 -76zM469 770l-27 104q-32 -55 -81 -85.5t-109 -30.5q-89 0 -142 53t-53 166q0 108 66.5 161.5t212.5 61.5l82 4v8q0 119 -103 119q-69 0 -163 -57l-56 127q128 78 256 78q116 0 175 -68.5 t59 -193.5v-447h-117z"/>
<glyph glyph-name="guillemotleft" horiz-adv-x="1141" unicode="«" d="M561 569l307 447l199 -111l-219 -348l219 -348l-199 -111l-307 445v26zM74 569l307 447l199 -111l-220 -348l220 -348l-199 -111l-307 445v26z"/>
<glyph glyph-name="logicalnot" horiz-adv-x="918" unicode="¬" d="M811 250h-195v368h-510v207h705v-575z"/>
<glyph glyph-name="uni00AD" horiz-adv-x="647" unicode="­" d="M72 432v234h503v-234h-503z"/>
<glyph glyph-name="registered" horiz-adv-x="1688" unicode="®" d="M227 731q0 -165 83 -308.5t225.5 -225.5t308.5 -82t309 82t225 225t82 309t-82 308.5t-225 225.5t-309 83q-165 0 -308.5 -82.5t-226 -225.5t-82.5 -309zM92 731q0 200 100 375t275 276t377 101q197 0 370 -97t277 -272t104 -383q0 -204 -100.5 -376.5t-273 -273.5 t-377.5 -101q-207 0 -382 103.5t-272.5 276.5t-97.5 371zM758 776h39q71 0 102 29.5t31 97.5q0 70 -33 95.5t-102 25.5h-37v-248zM1147 907q0 -170 -148 -233l19 -29l219 -371h-238l-184 342h-57v-342h-215v912h258q180 0 263 -68t83 -211z"/>
<glyph glyph-name="overscore" horiz-adv-x="1024" unicode="¯" d="M1030 1556h-1036v189h1036v-189z"/>
<glyph glyph-name="degree" horiz-adv-x="831" unicode="°" d="M252 1143q0 -67 49 -114.5t115 -47.5t114 47.5t48 114.5q0 68 -47.5 116t-114.5 48t-115.5 -49t-48.5 -115zM76 1143q0 139 99 239.5t241 100.5q139 0 239.5 -100t100.5 -240q0 -141 -99 -239.5t-241 -98.5q-143 0 -241.5 98.5t-98.5 239.5z"/>
<glyph glyph-name="plusminus" horiz-adv-x="918" unicode="±" d="M106 0v207h705v-207h-705zM360 618h-254v207h254v373h197v-373h254v-207h-254v-368h-197v368z"/>
<glyph glyph-name="twosuperior" horiz-adv-x="688" unicode="²" d="M623 586h-570v157l199 222q95 107 122 153.5t27 98.5q0 42 -23.5 65t-62.5 23q-75 0 -163 -88l-103 139q127 127 289 127q122 0 191 -67t69 -183q0 -81 -38.5 -154t-160.5 -200l-102 -107h326v-186z"/>
<glyph glyph-name="threesuperior" horiz-adv-x="688" unicode="³" d="M588 1251q0 -149 -148 -200v-11q89 -21 131.5 -78.5t42.5 -130.5q0 -121 -78 -191.5t-229 -70.5q-156 0 -244 56v176q106 -72 230 -72q135 0 135 117q0 112 -154 112h-98v150h84q73 0 110.5 27.5t37.5 89.5q0 43 -24 68.5t-71 25.5q-44 0 -82.5 -19t-87.5 -59l-86 133 q71 59 137 83t140 24q111 0 182.5 -62.5t71.5 -167.5z"/>
<glyph glyph-name="acute" horiz-adv-x="1114" unicode="´" d="M311 1241v27q41 53 95 151t77 150h318v-21q-24 -43 -119 -138.5t-184 -168.5h-187z"/>
<glyph glyph-name="mu" horiz-adv-x="1038" unicode="µ" d="M371 414q0 -114 30 -161.5t93 -47.5q86 0 125.5 86t39.5 289v534h269v-1114h-213l-33 143h-16q-63 -163 -199 -163q-59 0 -105 40q9 -130 9 -272v-240h-269v1606h269v-700z"/>
<glyph glyph-name="paragraph" horiz-adv-x="1083" unicode="¶" d="M948 -260h-153v1624h-162v-1624h-154v819q-45 -18 -106 -18q-160 0 -235 125t-75 376q0 257 80.5 385.5t255.5 128.5h549v-1816z"/>
<glyph glyph-name="periodcentered" horiz-adv-x="553" unicode="·" d="M111 723q0 78 41.5 121t123.5 43t124 -42.5t42 -121.5q0 -78 -43.5 -121t-122.5 -43q-81 0 -123 43.5t-42 120.5z"/>
<glyph glyph-name="cedilla" horiz-adv-x="416" unicode="¸" d="M397 -260q0 -107 -71 -169.5t-220 -62.5q-73 0 -131 21v154q61 -17 121 -17q88 0 88 66q0 84 -157 110l79 158h173l-37 -76q68 -17 111.5 -63t43.5 -121z"/>
<glyph glyph-name="onesuperior" horiz-adv-x="688" unicode="¹" d="M500 586h-197v461l3 112l5 96q-7 -10 -22 -24t-131 -113l-92 117l272 227h162v-876z"/>
<glyph glyph-name="ordmasculine" horiz-adv-x="686" unicode="º" d="M233 1120q0 -106 27 -157.5t84 -51.5t83 51.5t26 157.5t-26 155.5t-83 49.5t-84 -49.5t-27 -155.5zM625 1120q0 -171 -76 -266.5t-207 -95.5q-130 0 -205.5 98.5t-75.5 263.5q0 170 75 264.5t208 94.5q128 0 204.5 -96.5t76.5 -262.5z"/>
<glyph glyph-name="guillemotright" horiz-adv-x="1141" unicode="»" d="M580 543l-308 -445l-198 111l219 348l-219 348l198 111l308 -447v-26zM1067 543l-307 -445l-199 111l219 348l-219 348l199 111l307 -447v-26z"/>
<glyph glyph-name="onequarter" horiz-adv-x="1597" unicode="¼" d="M1174 320v170l4 187q-12 -33 -34.5 -84t-35.5 -72l-121 -201h187zM1481 160h-111v-159h-196v159h-345v146l347 577h194v-563h111v-160zM493 586h-197v461l3 112l5 96q-7 -10 -22 -24t-131 -113l-92 117l272 227h162v-876zM1222 1462l-743 -1462h-203l742 1462h204z"/>
<glyph glyph-name="onehalf" horiz-adv-x="1597" unicode="½" d="M1518 1h-570v157l199 222q95 107 122 153.5t27 98.5q0 42 -23.5 65t-62.5 23q-75 0 -163 -88l-103 139q127 127 289 127q122 0 191 -67t69 -183q0 -81 -38.5 -154t-160.5 -200l-102 -107h326v-186zM493 586h-197v461l3 112l5 96q-7 -10 -22 -24t-131 -113l-92 117 l272 227h162v-876zM1222 1462l-743 -1462h-203l742 1462h204z"/>
<glyph glyph-name="threequarters" horiz-adv-x="1597" unicode="¾" d="M1180 320v170l4 187q-12 -33 -34.5 -84t-35.5 -72l-121 -201h187zM1487 160h-111v-159h-196v159h-345v146l347 577h194v-563h111v-160zM592 1251q0 -149 -148 -200v-11q89 -21 131.5 -78.5t42.5 -130.5q0 -121 -78 -191.5t-229 -70.5q-156 0 -244 56v176q106 -72 230 -72 q135 0 135 117q0 112 -154 112h-98v150h84q73 0 110.5 27.5t37.5 89.5q0 43 -24 68.5t-71 25.5q-44 0 -82.5 -19t-87.5 -59l-86 133q71 59 137 83t140 24q111 0 182.5 -62.5t71.5 -167.5zM1257 1462l-743 -1462h-203l742 1462h204z"/>
<glyph glyph-name="questiondown" horiz-adv-x="782" unicode="¿" d="M610 954q0 -79 -43 -121t-125 -42q-78 0 -120.5 42t-42.5 121q0 78 43.5 121t119.5 43q82 0 125 -43.5t43 -120.5zM563 621v-72q0 -94 -29.5 -165.5t-107.5 -156.5q-74 -81 -94.5 -127t-20.5 -116q0 -63 31 -104.5t94 -41.5q109 0 226 78l96 -201q-158 -106 -348 -106 q-167 0 -262 90.5t-95 255.5q0 76 14 134t44 109.5t112 141.5q66 70 85.5 111.5t19.5 107.5v62h235z"/>
<glyph glyph-name="Agrave" horiz-adv-x="1094" unicode="À" d="M686 610l-78 340q-7 31 -31.5 155.5t-29.5 166.5q-13 -86 -33 -189.5t-104 -472.5h276zM821 0l-84 369h-381l-84 -369h-272l362 1468h369l363 -1468h-273zM496 1579q-75 60 -176 160.5t-127 146.5v21h318q27 -60 80.5 -155.5t91.5 -145.5v-27h-187z"/>
<glyph glyph-name="Aacute" horiz-adv-x="1094" unicode="Á" d="M686 610l-78 340q-7 31 -31.5 155.5t-29.5 166.5q-13 -86 -33 -189.5t-104 -472.5h276zM821 0l-84 369h-381l-84 -369h-272l362 1468h369l363 -1468h-273zM405 1579v27q41 53 95 151t77 150h318v-21q-24 -43 -119 -138.5t-184 -168.5h-187z"/>
<glyph glyph-name="Acircumflex" horiz-adv-x="1094" unicode="Â" d="M686 610l-78 340q-7 31 -31.5 155.5t-29.5 166.5q-13 -86 -33 -189.5t-104 -472.5h276zM821 0l-84 369h-381l-84 -369h-272l362 1468h369l363 -1468h-273zM735 1579q-96 72 -189 178q-89 -100 -186 -178h-168v27q177 223 217 301h277q47 -87 217 -301v-27h-168z"/>
<glyph glyph-name="Atilde" horiz-adv-x="1094" unicode="Ã" d="M686 610l-78 340q-7 31 -31.5 155.5t-29.5 166.5q-13 -86 -33 -189.5t-104 -472.5h276zM821 0l-84 369h-381l-84 -369h-272l362 1468h369l363 -1468h-273zM429 1686q-31 0 -49.5 -23.5t-28.5 -85.5h-141q11 153 68.5 227t150.5 74q43 0 77.5 -16.5t64.5 -36.5t58 -36.5 t58 -16.5q34 0 49.5 26t26.5 82h141q-11 -152 -69.5 -226.5t-149.5 -74.5q-44 0 -78.5 16.5t-64 37t-56.5 37t-57 16.5z"/>
<glyph glyph-name="Adieresis" horiz-adv-x="1094" unicode="Ä" d="M686 610l-78 340q-7 31 -31.5 155.5t-29.5 166.5q-13 -86 -33 -189.5t-104 -472.5h276zM821 0l-84 369h-381l-84 -369h-272l362 1468h369l363 -1468h-273zM614 1741q0 60 35 94.5t98 34.5q61 0 97 -34t36 -95q0 -59 -35.5 -93t-97.5 -34t-97.5 34.5t-35.5 92.5zM216 1741 q0 61 35 95t97 34t97.5 -35.5t35.5 -93.5q0 -57 -35.5 -92t-97.5 -35t-97 33.5t-35 93.5z"/>
<glyph glyph-name="Aring" horiz-adv-x="1094" unicode="Å" d="M686 610l-78 340q-7 31 -31.5 155.5t-29.5 166.5q-13 -86 -33 -189.5t-104 -472.5h276zM821 0l-84 369h-381l-84 -369h-272l362 1468h369l363 -1468h-273zM646 1569q0 46 -28.5 73t-71.5 27t-71.5 -27t-28.5 -73q0 -47 25 -74t75 -27q43 0 71.5 27t28.5 74zM796 1571 q0 -107 -69.5 -171.5t-180.5 -64.5q-110 0 -177 62.5t-67 171.5q0 108 67 170.5t177 62.5q109 0 179.5 -64t70.5 -167z"/>
<glyph glyph-name="AE" horiz-adv-x="1425" unicode="Æ" d="M645 1227l-14 -49l-170 -568h223v617h-39zM1339 0h-655v369h-299l-113 -369h-272l473 1462h866v-235h-383v-348h355v-236h-355v-405h383v-238z"/>
<glyph glyph-name="Ccedilla" d="M614 1245q-117 0 -184.5 -137t-67.5 -381q0 -508 265 -508q116 0 243 74v-242q-107 -71 -274 -71q-247 0 -379.5 196.5t-132.5 552.5t136.5 555t379.5 199q80 0 153.5 -22t157.5 -77l-90 -221q-45 31 -96 56.5t-111 25.5zM747 -260q0 -107 -71 -169.5t-220 -62.5 q-73 0 -131 21v154q61 -17 121 -17q88 0 88 66q0 84 -157 110l79 158h173l-37 -76q68 -17 111.5 -63t43.5 -121z" unicode="Ç"/>
<glyph glyph-name="Egrave" horiz-adv-x="872" unicode="È" d="M788 0h-659v1462h659v-235h-387v-348h359v-236h-359v-405h387v-238zM392 1579q-75 60 -176 160.5t-127 146.5v21h318q27 -60 80.5 -155.5t91.5 -145.5v-27h-187z"/>
<glyph glyph-name="Eacute" horiz-adv-x="872" unicode="É" d="M788 0h-659v1462h659v-235h-387v-348h359v-236h-359v-405h387v-238zM336 1579v27q41 53 95 151t77 150h318v-21q-24 -43 -119 -138.5t-184 -168.5h-187z"/>
<glyph glyph-name="Ecircumflex" horiz-adv-x="872" unicode="Ê" d="M788 0h-659v1462h659v-235h-387v-348h359v-236h-359v-405h387v-238zM646 1579q-96 72 -189 178q-89 -100 -186 -178h-168v27q177 223 217 301h277q47 -87 217 -301v-27h-168z"/>
<glyph glyph-name="Edieresis" horiz-adv-x="872" unicode="Ë" d="M788 0h-659v1462h659v-235h-387v-348h359v-236h-359v-405h387v-238zM528 1741q0 60 35 94.5t98 34.5q61 0 97 -34t36 -95q0 -59 -35.5 -93t-97.5 -34t-97.5 34.5t-35.5 92.5zM130 1741q0 61 35 95t97 34t97.5 -35.5t35.5 -93.5q0 -57 -35.5 -92t-97.5 -35t-97 33.5 t-35 93.5z"/>
<glyph glyph-name="Igrave" horiz-adv-x="614" unicode="Ì" d="M178 0v1462h256v-1462h-256zM253 1579q-75 60 -176 160.5t-127 146.5v21h318q27 -60 80.5 -155.5t91.5 -145.5v-27h-187z"/>
<glyph glyph-name="Iacute" horiz-adv-x="614" unicode="Í" d="M178 0v1462h256v-1462h-256zM167 1579v27q41 53 95 151t77 150h318v-21q-24 -43 -119 -138.5t-184 -168.5h-187z"/>
<glyph glyph-name="Icircumflex" horiz-adv-x="614" unicode="Î" d="M178 0v1462h256v-1462h-256zM495 1579q-96 72 -189 178q-89 -100 -186 -178h-168v27q177 223 217 301h277q47 -87 217 -301v-27h-168z"/>
<glyph glyph-name="Idieresis" horiz-adv-x="614" unicode="Ï" d="M178 0v1462h256v-1462h-256zM374 1741q0 60 35 94.5t98 34.5q61 0 97 -34t36 -95q0 -59 -35.5 -93t-97.5 -34t-97.5 34.5t-35.5 92.5zM-24 1741q0 61 35 95t97 34t97.5 -35.5t35.5 -93.5q0 -57 -35.5 -92t-97.5 -35t-97 33.5t-35 93.5z"/>
<glyph glyph-name="Eth" horiz-adv-x="1143" unicode="Ð" d="M780 737q0 490 -270 490h-109v-385h183v-238h-183v-366h88q149 0 220 124.5t71 374.5zM0 842h129v620h391q255 0 397 -188.5t142 -528.5q0 -362 -147.5 -553.5t-424.5 -191.5h-358v604h-129v238z"/>
<glyph glyph-name="Ntilde" horiz-adv-x="1282" unicode="Ñ" d="M1153 0h-332l-452 1059h-13q25 -121 25 -260v-799h-252v1462h334l448 -1048h11q-19 105 -19 250v798h250v-1462zM522 1686q-31 0 -49.5 -23.5t-28.5 -85.5h-141q11 153 68.5 227t150.5 74q43 0 77.5 -16.5t64.5 -36.5t58 -36.5t58 -16.5q34 0 49.5 26t26.5 82h141 q-11 -152 -69.5 -226.5t-149.5 -74.5q-44 0 -78.5 16.5t-64 37t-56.5 37t-57 16.5z"/>
<glyph glyph-name="Ograve" horiz-adv-x="1219" unicode="Ò" d="M362 733q0 -250 63 -381t185 -131q246 0 246 512t-244 512q-124 0 -187 -130.5t-63 -381.5zM1135 733q0 -363 -136 -558t-389 -195q-254 0 -390 194.5t-136 560.5q0 363 136 556.5t392 193.5q253 0 388 -194.5t135 -557.5zM547 1579q-75 60 -176 160.5t-127 146.5v21h318 q27 -60 80.5 -155.5t91.5 -145.5v-27h-187z"/>
<glyph glyph-name="Oacute" horiz-adv-x="1219" unicode="Ó" d="M362 733q0 -250 63 -381t185 -131q246 0 246 512t-244 512q-124 0 -187 -130.5t-63 -381.5zM1135 733q0 -363 -136 -558t-389 -195q-254 0 -390 194.5t-136 560.5q0 363 136 556.5t392 193.5q253 0 388 -194.5t135 -557.5zM477 1579v27q41 53 95 151t77 150h318v-21 q-24 -43 -119 -138.5t-184 -168.5h-187z"/>
<glyph glyph-name="Ocircumflex" horiz-adv-x="1219" unicode="Ô" d="M362 733q0 -250 63 -381t185 -131q246 0 246 512t-244 512q-124 0 -187 -130.5t-63 -381.5zM1135 733q0 -363 -136 -558t-389 -195q-254 0 -390 194.5t-136 560.5q0 363 136 556.5t392 193.5q253 0 388 -194.5t135 -557.5zM795 1579q-96 72 -189 178q-89 -100 -186 -178 h-168v27q177 223 217 301h277q47 -87 217 -301v-27h-168z"/>
<glyph glyph-name="Otilde" horiz-adv-x="1219" unicode="Õ" d="M362 733q0 -250 63 -381t185 -131q246 0 246 512t-244 512q-124 0 -187 -130.5t-63 -381.5zM1135 733q0 -363 -136 -558t-389 -195q-254 0 -390 194.5t-136 560.5q0 363 136 556.5t392 193.5q253 0 388 -194.5t135 -557.5zM491 1686q-31 0 -49.5 -23.5t-28.5 -85.5h-141 q11 153 68.5 227t150.5 74q43 0 77.5 -16.5t64.5 -36.5t58 -36.5t58 -16.5q34 0 49.5 26t26.5 82h141q-11 -152 -69.5 -226.5t-149.5 -74.5q-44 0 -78.5 16.5t-64 37t-56.5 37t-57 16.5z"/>
<glyph glyph-name="Odieresis" horiz-adv-x="1219" unicode="Ö" d="M362 733q0 -250 63 -381t185 -131q246 0 246 512t-244 512q-124 0 -187 -130.5t-63 -381.5zM1135 733q0 -363 -136 -558t-389 -195q-254 0 -390 194.5t-136 560.5q0 363 136 556.5t392 193.5q253 0 388 -194.5t135 -557.5zM674 1741q0 60 35 94.5t98 34.5q61 0 97 -34 t36 -95q0 -59 -35.5 -93t-97.5 -34t-97.5 34.5t-35.5 92.5zM276 1741q0 61 35 95t97 34t97.5 -35.5t35.5 -93.5q0 -57 -35.5 -92t-97.5 -35t-97 33.5t-35 93.5z"/>
<glyph glyph-name="multiply" horiz-adv-x="918" unicode="×" d="M92 389l246 334l-246 330l152 112l213 -282l215 282l151 -112l-245 -330l245 -334l-151 -113l-215 289l-213 -289z"/>
<glyph glyph-name="Oslash" horiz-adv-x="1219" unicode="Ø" d="M362 733q0 -158 21 -266l371 729q-53 49 -142 49q-124 0 -187 -130.5t-63 -381.5zM856 733q0 152 -12 236l-363 -709q48 -39 129 -39q246 0 246 512zM1135 733q0 -363 -136 -558t-389 -195q-135 0 -241 57l-70 -139l-166 77l96 187q-145 193 -145 573q0 363 136 556.5 t392 193.5q137 0 252 -68l72 142l166 -76l-101 -197q134 -192 134 -553z"/>
<glyph glyph-name="Ugrave" horiz-adv-x="1151" unicode="Ù" d="M1028 1462v-946q0 -261 -118 -398.5t-341 -137.5q-218 0 -332 136.5t-114 403.5v942h270v-962q0 -279 185 -279q86 0 133 71t47 202v968h270zM513 1579q-75 60 -176 160.5t-127 146.5v21h318q27 -60 80.5 -155.5t91.5 -145.5v-27h-187z"/>
<glyph glyph-name="Uacute" horiz-adv-x="1151" unicode="Ú" d="M1028 1462v-946q0 -261 -118 -398.5t-341 -137.5q-218 0 -332 136.5t-114 403.5v942h270v-962q0 -279 185 -279q86 0 133 71t47 202v968h270zM444 1579v27q41 53 95 151t77 150h318v-21q-24 -43 -119 -138.5t-184 -168.5h-187z"/>
<glyph glyph-name="Ucircumflex" horiz-adv-x="1151" unicode="Û" d="M1028 1462v-946q0 -261 -118 -398.5t-341 -137.5q-218 0 -332 136.5t-114 403.5v942h270v-962q0 -279 185 -279q86 0 133 71t47 202v968h270zM762 1579q-96 72 -189 178q-89 -100 -186 -178h-168v27q177 223 217 301h277q47 -87 217 -301v-27h-168z"/>
<glyph glyph-name="Udieresis" horiz-adv-x="1151" unicode="Ü" d="M1028 1462v-946q0 -261 -118 -398.5t-341 -137.5q-218 0 -332 136.5t-114 403.5v942h270v-962q0 -279 185 -279q86 0 133 71t47 202v968h270zM641 1741q0 60 35 94.5t98 34.5q61 0 97 -34t36 -95q0 -59 -35.5 -93t-97.5 -34t-97.5 34.5t-35.5 92.5zM243 1741q0 61 35 95 t97 34t97.5 -35.5t35.5 -93.5q0 -57 -35.5 -92t-97.5 -35t-97 33.5t-35 93.5z"/>
<glyph glyph-name="Yacute" horiz-adv-x="961" unicode="Ý" d="M481 885l195 577h285l-347 -876v-586h-268v575l-346 887h287zM346 1579v27q41 53 95 151t77 150h318v-21q-24 -43 -119 -138.5t-184 -168.5h-187z"/>
<glyph glyph-name="Thorn" horiz-adv-x="981" unicode="Þ" d="M401 530h52q100 0 149 56t49 182q0 227 -182 227h-68v-465zM926 778q0 -233 -117 -358t-340 -125h-68v-295h-272v1462h272v-233h97q428 0 428 -451z"/>
<glyph glyph-name="germandbls" horiz-adv-x="1108" unicode="ß" d="M963 1245q0 -151 -106 -263l-51 -53q-56 -58 -56 -93q0 -36 26.5 -69t126.5 -114q95 -76 128.5 -146.5t33.5 -168.5q0 -169 -100 -263.5t-283 -94.5q-140 0 -231 53v225q105 -70 208 -70q134 0 134 129q0 55 -27 95.5t-115 109.5q-89 66 -127.5 129t-38.5 148 q0 62 25 113.5t79 104.5q58 57 80.5 96.5t22.5 86.5q0 68 -38.5 107t-112.5 39q-162 0 -162 -203v-1143h-266v1151q0 202 112.5 309t319.5 107q196 0 307 -85t111 -237z"/>
<glyph glyph-name="agrave" horiz-adv-x="956" unicode="à" d="M428 188q73 0 116.5 65.5t43.5 174.5v94l-82 -4q-91 -5 -133.5 -52t-42.5 -140q0 -138 98 -138zM659 0l-53 152h-6q-59 -98 -122 -135t-159 -37q-123 0 -193.5 92t-70.5 256q0 176 96.5 261.5t288.5 94.5l148 6v80q0 156 -135 156q-100 0 -230 -78l-92 184 q166 105 361 105q177 0 269.5 -101.5t92.5 -287.5v-748h-195zM449 1241q-75 60 -176 160.5t-127 146.5v21h318q27 -60 80.5 -155.5t91.5 -145.5v-27h-187z"/>
<glyph glyph-name="aacute" horiz-adv-x="956" unicode="á" d="M428 188q73 0 116.5 65.5t43.5 174.5v94l-82 -4q-91 -5 -133.5 -52t-42.5 -140q0 -138 98 -138zM659 0l-53 152h-6q-59 -98 -122 -135t-159 -37q-123 0 -193.5 92t-70.5 256q0 176 96.5 261.5t288.5 94.5l148 6v80q0 156 -135 156q-100 0 -230 -78l-92 184 q166 105 361 105q177 0 269.5 -101.5t92.5 -287.5v-748h-195zM362 1241v27q41 53 95 151t77 150h318v-21q-24 -43 -119 -138.5t-184 -168.5h-187z"/>
<glyph glyph-name="acircumflex" horiz-adv-x="956" unicode="â" d="M428 188q73 0 116.5 65.5t43.5 174.5v94l-82 -4q-91 -5 -133.5 -52t-42.5 -140q0 -138 98 -138zM659 0l-53 152h-6q-59 -98 -122 -135t-159 -37q-123 0 -193.5 92t-70.5 256q0 176 96.5 261.5t288.5 94.5l148 6v80q0 156 -135 156q-100 0 -230 -78l-92 184 q166 105 361 105q177 0 269.5 -101.5t92.5 -287.5v-748h-195zM683 1240q-96 72 -189 178q-89 -100 -186 -178h-168v27q177 223 217 301h277q47 -87 217 -301v-27h-168z"/>
<glyph glyph-name="atilde" horiz-adv-x="956" unicode="ã" d="M428 188q73 0 116.5 65.5t43.5 174.5v94l-82 -4q-91 -5 -133.5 -52t-42.5 -140q0 -138 98 -138zM659 0l-53 152h-6q-59 -98 -122 -135t-159 -37q-123 0 -193.5 92t-70.5 256q0 176 96.5 261.5t288.5 94.5l148 6v80q0 156 -135 156q-100 0 -230 -78l-92 184 q166 105 361 105q177 0 269.5 -101.5t92.5 -287.5v-748h-195zM380 1348q-31 0 -49.5 -23.5t-28.5 -85.5h-141q11 153 68.5 227t150.5 74q43 0 77.5 -16.5t64.5 -36.5t58 -36.5t58 -16.5q34 0 49.5 26t26.5 82h141q-11 -152 -69.5 -226.5t-149.5 -74.5q-44 0 -78.5 16.5 t-64 37t-56.5 37t-57 16.5z"/>
<glyph glyph-name="adieresis" horiz-adv-x="956" unicode="ä" d="M428 188q73 0 116.5 65.5t43.5 174.5v94l-82 -4q-91 -5 -133.5 -52t-42.5 -140q0 -138 98 -138zM659 0l-53 152h-6q-59 -98 -122 -135t-159 -37q-123 0 -193.5 92t-70.5 256q0 176 96.5 261.5t288.5 94.5l148 6v80q0 156 -135 156q-100 0 -230 -78l-92 184 q166 105 361 105q177 0 269.5 -101.5t92.5 -287.5v-748h-195zM562 1403q0 60 35 94.5t98 34.5q61 0 97 -34t36 -95q0 -59 -35.5 -93t-97.5 -34t-97.5 34.5t-35.5 92.5zM164 1403q0 61 35 95t97 34t97.5 -35.5t35.5 -93.5q0 -57 -35.5 -92t-97.5 -35t-97 33.5t-35 93.5z"/>
<glyph glyph-name="aring" horiz-adv-x="956" unicode="å" d="M428 188q73 0 116.5 65.5t43.5 174.5v94l-82 -4q-91 -5 -133.5 -52t-42.5 -140q0 -138 98 -138zM659 0l-53 152h-6q-59 -98 -122 -135t-159 -37q-123 0 -193.5 92t-70.5 256q0 176 96.5 261.5t288.5 94.5l148 6v80q0 156 -135 156q-100 0 -230 -78l-92 184 q166 105 361 105q177 0 269.5 -101.5t92.5 -287.5v-748h-195zM593 1473q0 46 -28.5 73t-71.5 27t-71.5 -27t-28.5 -73q0 -47 25 -74t75 -27q43 0 71.5 27t28.5 74zM743 1475q0 -107 -69.5 -171.5t-180.5 -64.5q-110 0 -177 62.5t-67 171.5q0 108 67 170.5t177 62.5 q109 0 179.5 -64t70.5 -167z"/>
<glyph glyph-name="ae" horiz-adv-x="1446" unicode="æ" d="M991 930q-125 0 -137 -248h270q-2 122 -37 185t-96 63zM588 522l-82 -4q-91 -5 -133.5 -52t-42.5 -140q0 -138 98 -138q73 0 116.5 65.5t43.5 174.5v94zM1028 -20q-231 0 -344 180q-57 -93 -132.5 -136.5t-180.5 -43.5q-154 0 -235 88.5t-81 259.5q0 176 96.5 261.5 t288.5 94.5l148 6v78q0 158 -135 158q-100 0 -230 -78l-92 184q166 105 361 105q165 0 258 -93q99 91 241 91q184 0 287.5 -134t103.5 -370v-142h-534q3 -149 61 -221.5t160 -72.5q135 0 266 81v-219q-127 -77 -307 -77z"/>
<glyph glyph-name="ccedilla" horiz-adv-x="760" unicode="ç" d="M481 -20q-199 0 -303 145t-104 426q0 294 98.5 439t304.5 145q62 0 130 -18t122 -52l-76 -207q-83 49 -147 49q-85 0 -122.5 -88.5t-37.5 -265.5q0 -173 37 -258.5t121 -85.5q100 0 209 70v-234q-105 -65 -232 -65zM643 -260q0 -107 -71 -169.5t-220 -62.5q-73 0 -131 21 v154q61 -17 121 -17q88 0 88 66q0 84 -157 110l79 158h173l-37 -76q68 -17 111.5 -63t43.5 -121z"/>
<glyph glyph-name="egrave" horiz-adv-x="942" unicode="è" d="M485 930q-57 0 -94 -60.5t-43 -187.5h270q-2 122 -37 185t-96 63zM524 -20q-209 0 -329.5 148.5t-120.5 420.5q0 276 109 431t304 155q182 0 287 -132.5t105 -371.5v-142h-535q3 -149 61 -221.5t160 -72.5q130 0 266 81v-219q-128 -77 -307 -77zM447 1241 q-75 60 -176 160.5t-127 146.5v21h318q27 -60 80.5 -155.5t91.5 -145.5v-27h-187z"/>
<glyph glyph-name="eacute" horiz-adv-x="942" unicode="é" d="M485 930q-57 0 -94 -60.5t-43 -187.5h270q-2 122 -37 185t-96 63zM524 -20q-209 0 -329.5 148.5t-120.5 420.5q0 276 109 431t304 155q182 0 287 -132.5t105 -371.5v-142h-535q3 -149 61 -221.5t160 -72.5q130 0 266 81v-219q-128 -77 -307 -77zM348 1241v27 q41 53 95 151t77 150h318v-21q-24 -43 -119 -138.5t-184 -168.5h-187z"/>
<glyph glyph-name="ecircumflex" horiz-adv-x="942" unicode="ê" d="M485 930q-57 0 -94 -60.5t-43 -187.5h270q-2 122 -37 185t-96 63zM524 -20q-209 0 -329.5 148.5t-120.5 420.5q0 276 109 431t304 155q182 0 287 -132.5t105 -371.5v-142h-535q3 -149 61 -221.5t160 -72.5q130 0 266 81v-219q-128 -77 -307 -77zM675 1241 q-96 72 -189 178q-89 -100 -186 -178h-168v27q177 223 217 301h277q47 -87 217 -301v-27h-168z"/>
<glyph glyph-name="edieresis" horiz-adv-x="942" unicode="ë" d="M485 930q-57 0 -94 -60.5t-43 -187.5h270q-2 122 -37 185t-96 63zM524 -20q-209 0 -329.5 148.5t-120.5 420.5q0 276 109 431t304 155q182 0 287 -132.5t105 -371.5v-142h-535q3 -149 61 -221.5t160 -72.5q130 0 266 81v-219q-128 -77 -307 -77zM554 1403q0 60 35 94.5 t98 34.5q61 0 97 -34t36 -95q0 -59 -35.5 -93t-97.5 -34t-97.5 34.5t-35.5 92.5zM156 1403q0 61 35 95t97 34t97.5 -35.5t35.5 -93.5q0 -57 -35.5 -92t-97.5 -35t-97 33.5t-35 93.5z"/>
<glyph glyph-name="igrave" horiz-adv-x="496" unicode="ì" d="M381 0h-266v1114h266v-1114zM193 1241q-75 60 -176 160.5t-127 146.5v21h318q27 -60 80.5 -155.5t91.5 -145.5v-27h-187z"/>
<glyph glyph-name="iacute" horiz-adv-x="496" unicode="í" d="M381 0h-266v1114h266v-1114zM113 1241v27q41 53 95 151t77 150h318v-21q-24 -43 -119 -138.5t-184 -168.5h-187z"/>
<glyph glyph-name="icircumflex" horiz-adv-x="496" unicode="î" d="M381 0h-266v1114h266v-1114zM433 1241q-96 72 -189 178q-89 -100 -186 -178h-168v27q177 223 217 301h277q47 -87 217 -301v-27h-168z"/>
<glyph glyph-name="idieresis" horiz-adv-x="496" unicode="ï" d="M381 0h-266v1114h266v-1114zM313 1403q0 60 35 94.5t98 34.5q61 0 97 -34t36 -95q0 -59 -35.5 -93t-97.5 -34t-97.5 34.5t-35.5 92.5zM-85 1403q0 61 35 95t97 34t97.5 -35.5t35.5 -93.5q0 -57 -35.5 -92t-97.5 -35t-97 33.5t-35 93.5z"/>
<glyph glyph-name="eth" horiz-adv-x="1012" unicode="ð" d="M666 530q0 116 -42.5 183t-113.5 67q-88 0 -126 -74t-38 -223q0 -133 41.5 -204.5t120.5 -71.5q85 0 121.5 81t36.5 242zM938 569q0 -275 -114.5 -432t-321.5 -157q-198 0 -313 135.5t-115 367.5q0 240 100.5 374t284.5 134q121 0 205 -117l12 3q-48 178 -182 317 l-220 -145l-96 145l193 123q-49 38 -154 96l94 158q148 -77 234 -144l207 140l94 -144l-170 -110q135 -141 198.5 -325.5t63.5 -418.5z"/>
<glyph glyph-name="ntilde" horiz-adv-x="1038" unicode="ñ" d="M668 0v664q0 121 -29 183t-94 62q-86 0 -126 -85.5t-40 -288.5v-535h-266v1114h211l32 -143h17q36 77 103 120.5t157 43.5q152 0 227.5 -104t75.5 -304v-727h-268zM402 1348q-31 0 -49.5 -23.5t-28.5 -85.5h-141q11 153 68.5 227t150.5 74q43 0 77.5 -16.5t64.5 -36.5 t58 -36.5t58 -16.5q34 0 49.5 26t26.5 82h141q-11 -152 -69.5 -226.5t-149.5 -74.5q-44 0 -78.5 16.5t-64 37t-56.5 37t-57 16.5z"/>
<glyph glyph-name="ograve" horiz-adv-x="1012" unicode="ò" d="M346 559q0 -174 38 -263t122 -89q160 0 160 352q0 175 -38.5 261.5t-121.5 86.5q-84 0 -122 -86.5t-38 -261.5zM938 559q0 -274 -116 -426.5t-318 -152.5q-128 0 -226 70t-151 201.5t-53 307.5q0 271 115 423.5t319 152.5q197 0 313.5 -155.5t116.5 -420.5zM459 1241 q-75 60 -176 160.5t-127 146.5v21h318q27 -60 80.5 -155.5t91.5 -145.5v-27h-187z"/>
<glyph glyph-name="oacute" horiz-adv-x="1012" unicode="ó" d="M346 559q0 -174 38 -263t122 -89q160 0 160 352q0 175 -38.5 261.5t-121.5 86.5q-84 0 -122 -86.5t-38 -261.5zM938 559q0 -274 -116 -426.5t-318 -152.5q-128 0 -226 70t-151 201.5t-53 307.5q0 271 115 423.5t319 152.5q197 0 313.5 -155.5t116.5 -420.5zM366 1241v27 q41 53 95 151t77 150h318v-21q-24 -43 -119 -138.5t-184 -168.5h-187z"/>
<glyph glyph-name="ocircumflex" horiz-adv-x="1012" unicode="ô" d="M346 559q0 -174 38 -263t122 -89q160 0 160 352q0 175 -38.5 261.5t-121.5 86.5q-84 0 -122 -86.5t-38 -261.5zM938 559q0 -274 -116 -426.5t-318 -152.5q-128 0 -226 70t-151 201.5t-53 307.5q0 271 115 423.5t319 152.5q197 0 313.5 -155.5t116.5 -420.5zM694 1241 q-96 72 -189 178q-89 -100 -186 -178h-168v27q177 223 217 301h277q47 -87 217 -301v-27h-168z"/>
<glyph glyph-name="otilde" horiz-adv-x="1012" unicode="õ" d="M346 559q0 -174 38 -263t122 -89q160 0 160 352q0 175 -38.5 261.5t-121.5 86.5q-84 0 -122 -86.5t-38 -261.5zM938 559q0 -274 -116 -426.5t-318 -152.5q-128 0 -226 70t-151 201.5t-53 307.5q0 271 115 423.5t319 152.5q197 0 313.5 -155.5t116.5 -420.5zM388 1348 q-31 0 -49.5 -23.5t-28.5 -85.5h-141q11 153 68.5 227t150.5 74q43 0 77.5 -16.5t64.5 -36.5t58 -36.5t58 -16.5q34 0 49.5 26t26.5 82h141q-11 -152 -69.5 -226.5t-149.5 -74.5q-44 0 -78.5 16.5t-64 37t-56.5 37t-57 16.5z"/>
<glyph glyph-name="odieresis" horiz-adv-x="1012" unicode="ö" d="M346 559q0 -174 38 -263t122 -89q160 0 160 352q0 175 -38.5 261.5t-121.5 86.5q-84 0 -122 -86.5t-38 -261.5zM938 559q0 -274 -116 -426.5t-318 -152.5q-128 0 -226 70t-151 201.5t-53 307.5q0 271 115 423.5t319 152.5q197 0 313.5 -155.5t116.5 -420.5zM573 1403 q0 60 35 94.5t98 34.5q61 0 97 -34t36 -95q0 -59 -35.5 -93t-97.5 -34t-97.5 34.5t-35.5 92.5zM175 1403q0 61 35 95t97 34t97.5 -35.5t35.5 -93.5q0 -57 -35.5 -92t-97.5 -35t-97 33.5t-35 93.5z"/>
<glyph glyph-name="divide" horiz-adv-x="918" unicode="÷" d="M332 1071q0 146 125 146q61 0 92 -37.5t31 -108.5q0 -67 -32.5 -106t-90.5 -39q-54 0 -89.5 34t-35.5 111zM332 373q0 145 125 145q61 0 92 -37.5t31 -107.5q0 -68 -32.5 -107t-90.5 -39q-54 0 -89.5 34.5t-35.5 111.5zM106 618v207h705v-207h-705z"/>
<glyph glyph-name="oslash" horiz-adv-x="1012" unicode="ø" d="M676 559l-4 117l-234 -457q25 -12 68 -12q83 0 126.5 89t43.5 263zM338 559v-73l2 -70l244 475q-34 16 -78 16q-168 0 -168 -348zM938 559q0 -274 -116 -426.5t-318 -152.5q-92 0 -166 36l-57 -112l-162 76l78 151q-57 71 -90 179.5t-33 248.5q0 271 115 423.5t319 152.5 q98 0 176 -41l51 96l160 -74l-72 -141q115 -148 115 -416z"/>
<glyph glyph-name="ugrave" horiz-adv-x="1038" unicode="ù" d="M715 0l-33 143h-14q-37 -76 -105.5 -119.5t-156.5 -43.5q-150 0 -227 102t-77 305v727h269v-663q0 -122 29 -184t94 -62q86 0 125.5 86t39.5 289v534h269v-1114h-213zM463 1241q-75 60 -176 160.5t-127 146.5v21h318q27 -60 80.5 -155.5t91.5 -145.5v-27h-187z"/>
<glyph glyph-name="uacute" horiz-adv-x="1038" unicode="ú" d="M715 0l-33 143h-14q-37 -76 -105.5 -119.5t-156.5 -43.5q-150 0 -227 102t-77 305v727h269v-663q0 -122 29 -184t94 -62q86 0 125.5 86t39.5 289v534h269v-1114h-213zM381 1241v27q41 53 95 151t77 150h318v-21q-24 -43 -119 -138.5t-184 -168.5h-187z"/>
<glyph glyph-name="ucircumflex" horiz-adv-x="1038" unicode="û" d="M715 0l-33 143h-14q-37 -76 -105.5 -119.5t-156.5 -43.5q-150 0 -227 102t-77 305v727h269v-663q0 -122 29 -184t94 -62q86 0 125.5 86t39.5 289v534h269v-1114h-213zM706 1241q-96 72 -189 178q-89 -100 -186 -178h-168v27q177 223 217 301h277q47 -87 217 -301v-27 h-168z"/>
<glyph glyph-name="udieresis" horiz-adv-x="1038" unicode="ü" d="M715 0l-33 143h-14q-37 -76 -105.5 -119.5t-156.5 -43.5q-150 0 -227 102t-77 305v727h269v-663q0 -122 29 -184t94 -62q86 0 125.5 86t39.5 289v534h269v-1114h-213zM583 1403q0 60 35 94.5t98 34.5q61 0 97 -34t36 -95q0 -59 -35.5 -93t-97.5 -34t-97.5 34.5 t-35.5 92.5zM185 1403q0 61 35 95t97 34t97.5 -35.5t35.5 -93.5q0 -57 -35.5 -92t-97.5 -35t-97 33.5t-35 93.5z"/>
<glyph glyph-name="yacute" horiz-adv-x="913" unicode="ý" d="M0 1114h276l154 -629q23 -84 37 -235h6q1 24 9 85.5t13 96.5t138 682h280l-319 -1194q-58 -220 -154 -316t-256 -96q-79 0 -141 17v223q41 -12 92 -12q134 0 176 176l19 70zM310 1241v27q41 53 95 151t77 150h318v-21q-24 -43 -119 -138.5t-184 -168.5h-187z"/>
<glyph glyph-name="thorn" horiz-adv-x="1016" unicode="þ" d="M528 909q-78 0 -112.5 -72.5t-36.5 -240.5v-35q0 -184 35 -268t116 -84q140 0 140 354q0 174 -34.5 260t-107.5 86zM379 969q49 93 106 129.5t133 36.5q152 0 238 -150.5t86 -425.5q0 -271 -89 -425t-245 -154q-70 0 -126 33t-103 114h-14q16 -136 16 -164v-455h-268 v2048h266v-364q0 -23 -1 -48t-13 -175h14z"/>
<glyph glyph-name="dotlessi" horiz-adv-x="496" unicode="ı" d="M381 0h-266v1114h266v-1114z"/>
<glyph glyph-name="OE" horiz-adv-x="1446" unicode="Œ" d="M612 1245q-124 0 -187 -130.5t-63 -381.5q0 -250 63 -381t185 -131q54 0 95 15v995q-47 14 -93 14zM1360 0h-600q-76 -20 -150 -20q-254 0 -390 194.5t-136 560.5q0 363 136 556.5t392 193.5q81 0 158 -23h590v-235h-383v-348h354v-236h-354v-405h383v-238z"/>
<glyph glyph-name="oe" horiz-adv-x="1532" unicode="œ" d="M1077 930q-57 0 -94 -60.5t-43 -187.5h270q-2 122 -37 185t-96 63zM346 559q0 -174 38 -263t122 -89q160 0 160 352q0 175 -38.5 261.5t-121.5 86.5q-84 0 -122 -86.5t-38 -261.5zM1116 -20q-197 0 -313 141q-116 -141 -299 -141q-128 0 -226 70t-151 201.5t-53 307.5 q0 271 115 423.5t319 152.5q174 0 289 -140q107 140 282 140q182 0 285.5 -133.5t103.5 -370.5v-142h-532q3 -149 61 -221.5t158 -72.5q132 0 268 81v-219q-130 -77 -307 -77z"/>
<glyph glyph-name="circumflex" horiz-adv-x="1135" unicode="ˆ" d="M754 1241q-96 72 -189 178q-89 -100 -186 -178h-168v27q177 223 217 301h277q47 -87 217 -301v-27h-168z"/>
<glyph glyph-name="ring" horiz-adv-x="1116" unicode="˚" d="M655 1473q0 46 -28.5 73t-71.5 27t-71.5 -27t-28.5 -73q0 -47 25 -74t75 -27q43 0 71.5 27t28.5 74zM805 1475q0 -107 -69.5 -171.5t-180.5 -64.5q-110 0 -177 62.5t-67 171.5q0 108 67 170.5t177 62.5q109 0 179.5 -64t70.5 -167z"/>
<glyph glyph-name="tilde" horiz-adv-x="1135" unicode="˜" d="M440 1348q-31 0 -49.5 -23.5t-28.5 -85.5h-141q11 153 68.5 227t150.5 74q43 0 77.5 -16.5t64.5 -36.5t58 -36.5t58 -16.5q34 0 49.5 26t26.5 82h141q-11 -152 -69.5 -226.5t-149.5 -74.5q-44 0 -78.5 16.5t-64 37t-56.5 37t-57 16.5z"/>
<glyph glyph-name="uni0400" horiz-adv-x="872" unicode="Ѐ" d="M788 0h-659v1462h659v-235h-387v-348h359v-236h-359v-405h387v-238zM437 1579q-75 60 -176 160.5t-127 146.5v21h318q27 -60 80.5 -155.5t91.5 -145.5v-27h-187z"/>
<glyph glyph-name="afii10023" horiz-adv-x="872" unicode="Ё" d="M788 0h-659v1462h659v-235h-387v-348h359v-236h-359v-405h387v-238zM528 1741q0 60 35 94.5t98 34.5q61 0 97 -34t36 -95q0 -59 -35.5 -93t-97.5 -34t-97.5 34.5t-35.5 92.5zM130 1741q0 61 35 95t97 34t97.5 -35.5t35.5 -93.5q0 -57 -35.5 -92t-97.5 -35t-97 33.5 t-35 93.5z"/>
<glyph glyph-name="afii10051" horiz-adv-x="1268" unicode="Ђ" d="M850 -18q-79 0 -148 24v227q49 -18 89 -18q57 0 80.5 42t23.5 126v131q0 92 -37.5 132t-126.5 40h-166v-686h-270v1223h-268v239h819v-239h-281v-297h201q207 0 303 -93t96 -292v-160q0 -399 -315 -399z"/>
<glyph glyph-name="afii10052" horiz-adv-x="819" unicode="Ѓ" d="M292 1579v27q41 53 95 151t77 150h318v-21q-24 -42 -119 -138t-184 -169h-187zM782 1462v-235h-383v-1227h-270v1462h653z"/>
<glyph glyph-name="afii10053" d="M612 1245q-101 0 -164 -102t-79 -283h379v-235h-381q23 -406 258 -406q116 0 243 74v-242q-107 -71 -274 -71q-247 0 -378.5 195.5t-131.5 553.5q0 356 136.5 555t377.5 199q81 0 156 -22.5t157 -76.5l-92 -221q-45 31 -96 56.5t-111 25.5z" unicode="Є"/>
<glyph glyph-name="afii10054" horiz-adv-x="846" unicode="Ѕ" d="M795 403q0 -205 -103.5 -314t-298.5 -109q-191 0 -325 75v269q164 -107 301 -107q78 0 117.5 43t39.5 117q0 73 -47 133.5t-155 134.5q-94 65 -142.5 124.5t-75 133.5t-26.5 172q0 188 104.5 298t280.5 110q168 0 323 -94l-90 -218q-48 28 -100.5 50t-112.5 22 q-66 0 -101.5 -43.5t-35.5 -118.5q0 -74 42.5 -129t148.5 -125q143 -96 199.5 -196t56.5 -228z"/>
<glyph glyph-name="afii10055" horiz-adv-x="614" unicode="І" d="M178 0v1462h256v-1462h-256z"/>
<glyph glyph-name="afii10056" horiz-adv-x="614" unicode="Ї" d="M178 0v1462h256v-1462h-256zM374 1741q0 60 35 94.5t98 34.5q61 0 97 -34t36 -95q0 -59 -35.5 -93t-97.5 -34t-97.5 34.5t-35.5 92.5zM-24 1741q0 61 35 95t97 34t97.5 -35.5t35.5 -93.5q0 -57 -35.5 -92t-97.5 -35t-97 33.5t-35 93.5z"/>
<glyph glyph-name="afii10057" horiz-adv-x="530" unicode="Ј" d="M14 -422q-106 0 -168 25v237q65 -20 123 -20q83 0 121.5 53t38.5 158v1431h272v-1417q0 -144 -48.5 -250t-137 -161.5t-201.5 -55.5z"/>
<glyph glyph-name="afii10058" horiz-adv-x="1552" unicode="Љ" d="M973 236h65q185 0 185 215q0 102 -45.5 147t-153.5 45h-51v-407zM1497 461q0 -218 -116.5 -339.5t-333.5 -121.5h-347v1223h-159q-45 -506 -90 -836q-30 -211 -108.5 -309t-209.5 -98q-81 0 -133 22v225q30 -12 74 -12q56 0 85.5 88t67 395t78.5 764h668v-581h67 q457 0 457 -420z"/>
<glyph glyph-name="afii10059" horiz-adv-x="1552" unicode="Њ" d="M975 236h63q185 0 185 215q0 102 -45.5 147t-153.5 45h-49v-407zM1497 461q0 -218 -116.5 -339.5t-333.5 -121.5h-345v641h-301v-641h-272v1462h272v-581h301v581h273v-581h65q457 0 457 -420z"/>
<glyph glyph-name="afii10060" horiz-adv-x="1278" unicode="Ћ" d="M565 926h199q208 0 304.5 -93t96.5 -292v-541h-270v514q0 92 -37.5 132t-126.5 40h-166v-686h-270v1223h-268v239h821v-239h-283v-297z"/>
<glyph glyph-name="afii10061" horiz-adv-x="1083" unicode="Ќ" d="M1083 0h-305l-375 741v-741h-270v1462h270v-708l381 708h291l-401 -704zM374 1579v27q41 53 95 151t77 150h318v-21q-24 -43 -119 -138.5t-184 -168.5h-187z"/>
<glyph glyph-name="uni040D" horiz-adv-x="1282" unicode="Ѝ" d="M129 1462h252v-803q0 -125 -19 -247h11l446 1050h334v-1462h-250v801q0 148 23 260h-13l-448 -1061h-336v1462zM628 1579q-75 60 -176 160.5t-127 146.5v21h318q27 -60 80.5 -155.5t91.5 -145.5v-27h-187z"/>
<glyph glyph-name="afii10062" horiz-adv-x="971" unicode="Ў" d="M215 -20q-105 0 -176 28v242q73 -29 151 -29q120 0 185 223l-375 1018h285l186 -571q23 -79 29 -135h8l14 68l15 67l159 571h275l-326 -1034q-79 -244 -179 -346t-251 -102zM871 1903q-19 -168 -109 -246t-264 -78q-170 1 -255 77t-101 247h221q11 -100 43 -135t98 -35 t98 40t44 130h225z"/>
<glyph glyph-name="afii10145" horiz-adv-x="1161" unicode="Џ" d="M1032 0h-313v-418h-273v418h-317v1462h272v-1222h359v1222h272v-1462z"/>
<glyph glyph-name="afii10017" horiz-adv-x="1094" unicode="А" d="M686 610l-78 340q-7 31 -31.5 155.5t-29.5 166.5q-13 -86 -33 -189.5t-104 -472.5h276zM821 0l-84 369h-381l-84 -369h-272l362 1468h369l363 -1468h-273z"/>
<glyph glyph-name="afii10018" horiz-adv-x="997" unicode="Б" d="M401 236h84q177 0 177 219q0 105 -44.5 151.5t-150.5 46.5h-66v-417zM936 465q0 -222 -113.5 -343.5t-324.5 -121.5h-369v1462h694v-237h-422v-334h86q222 0 335.5 -107t113.5 -319z"/>
<glyph glyph-name="afii10019" horiz-adv-x="1038" unicode="В" d="M385 647v-409h137q85 0 126.5 52t41.5 161q0 196 -172 196h-133zM385 874h125q86 0 121 46t35 137t-40 130.5t-126 39.5h-115v-353zM129 1462h373q228 0 332 -88.5t104 -281.5q0 -127 -55 -212.5t-150 -103.5v-10q124 -31 179 -116t55 -226q0 -199 -106.5 -311.5 t-291.5 -112.5h-440v1462z"/>
<glyph glyph-name="afii10020" horiz-adv-x="819" unicode="Г" d="M782 1462v-235h-383v-1227h-270v1462h653z"/>
<glyph glyph-name="afii10021" horiz-adv-x="1225" unicode="Д" d="M756 240v983h-166q-25 -243 -80.5 -504.5t-130.5 -478.5h377zM1194 -418h-264v418h-656v-418h-264v658h86q206 547 264 1222h668v-1222h166v-658z"/>
<glyph glyph-name="afii10022" horiz-adv-x="872" unicode="Е" d="M788 0h-659v1462h659v-235h-387v-348h359v-236h-359v-405h387v-238z"/>
<glyph glyph-name="afii10024" horiz-adv-x="1493" unicode="Ж" d="M365 758l-359 704h279l333 -708v708h254v-708l334 708h281l-359 -702l365 -760h-295l-326 741v-741h-254v741l-323 -741h-295z"/>
<glyph glyph-name="afii10025" horiz-adv-x="991" unicode="З" d="M887 1116q0 -136 -80.5 -225.5t-231.5 -120.5v-8q164 -20 254.5 -109.5t90.5 -238.5q0 -202 -129.5 -318t-352.5 -116q-236 0 -368 69v238q148 -82 315 -82q262 0 262 229q0 104 -75.5 158.5t-223.5 54.5h-98v223h88q145 0 214 50.5t69 156.5q0 85 -46 130.5t-133 45.5 q-133 0 -252 -108l-129 182q99 85 201 120.5t227 35.5q181 0 289.5 -100.5t108.5 -266.5z"/>
<glyph glyph-name="afii10026" horiz-adv-x="1282" unicode="И" d="M129 1462h252v-803q0 -125 -19 -247h11l446 1050h334v-1462h-250v801q0 148 23 260h-13l-448 -1061h-336v1462z"/>
<glyph glyph-name="afii10027" horiz-adv-x="1282" unicode="Й" d="M129 1462h252v-803q0 -125 -19 -247h11l446 1050h334v-1462h-250v801q0 148 23 260h-13l-448 -1061h-336v1462zM1006 1903q-20 -168 -110 -246t-263 -78q-170 1 -255 77t-101 247h221q10 -100 42 -135t99 -35t99 40t43 130h225z"/>
<glyph glyph-name="afii10028" horiz-adv-x="1083" unicode="К" d="M1083 0h-305l-375 741v-741h-270v1462h270v-708l381 708h291l-401 -704z"/>
<glyph glyph-name="afii10029" horiz-adv-x="1161" unicode="Л" d="M1032 0h-272v1223h-219q-45 -506 -90 -836q-30 -211 -108.5 -309t-209.5 -98q-81 0 -133 22v225q30 -12 74 -12q56 0 85.5 88t67 395t78.5 764h727v-1462z"/>
<glyph glyph-name="afii10030" horiz-adv-x="1606" unicode="М" d="M651 0l-278 1245h-11q19 -144 19 -264v-981h-252v1462h418l250 -1149h8l248 1149h424v-1462h-258v991q0 123 14 252h-8l-277 -1243h-297z"/>
<glyph glyph-name="afii10031" horiz-adv-x="1161" unicode="Н" d="M1032 0h-272v641h-359v-641h-272v1462h272v-581h359v581h272v-1462z"/>
<glyph glyph-name="afii10032" horiz-adv-x="1219" unicode="О" d="M362 733q0 -250 63 -381t185 -131q246 0 246 512t-244 512q-124 0 -187 -130.5t-63 -381.5zM1135 733q0 -363 -136 -558t-389 -195q-254 0 -390 194.5t-136 560.5q0 363 136 556.5t392 193.5q253 0 388 -194.5t135 -557.5z"/>
<glyph glyph-name="afii10033" horiz-adv-x="1161" unicode="П" d="M1032 0h-270v1223h-361v-1223h-272v1462h903v-1462z"/>
<glyph glyph-name="afii10034" horiz-adv-x="981" unicode="Р" d="M401 766h52q100 0 149 55t49 180q0 115 -45 170.5t-139 55.5h-66v-461zM926 1012q0 -233 -117.5 -357.5t-339.5 -124.5h-68v-530h-272v1462h371q426 0 426 -450z"/>
<glyph glyph-name="afii10035" d="M614 1245q-117 0 -184.5 -137t-67.5 -381q0 -508 265 -508q116 0 243 74v-242q-107 -71 -274 -71q-247 0 -379.5 196.5t-132.5 552.5t136.5 555t379.5 199q80 0 153.5 -22t157.5 -77l-90 -221q-45 31 -96 56.5t-111 25.5z" unicode="С"/>
<glyph glyph-name="afii10036" horiz-adv-x="885" unicode="Т" d="M578 0h-271v1223h-280v239h831v-239h-280v-1223z"/>
<glyph glyph-name="afii10037" horiz-adv-x="971" unicode="У" d="M215 -20q-105 0 -176 28v242q73 -29 151 -29q120 0 185 223l-375 1018h285l186 -571q23 -79 29 -135h8l14 68l15 67l159 571h275l-326 -1034q-78 -245 -178.5 -346.5t-251.5 -101.5z"/>
<glyph glyph-name="afii10038" horiz-adv-x="1430" unicode="Ф" d="M588 1096h-29q-99 0 -153 -88t-54 -248q0 -166 60 -258t166 -92h10v686zM844 410h8q108 0 166 92t59 258q1 164 -53 250t-154 86h-26v-686zM588 1483h256v-180h37q227 0 351 -144t124 -397q0 -168 -59 -294t-171 -194t-272 -69h-10v-225h-256v225h-13q-239 0 -370 145 t-131 404q0 162 58 287t167 193t256 69h33v180z"/>
<glyph glyph-name="afii10039" horiz-adv-x="969" unicode="Х" d="M969 0h-283l-209 524l-194 -524h-283l334 760l-309 702h274l193 -481l167 481h285l-309 -714z"/>
<glyph glyph-name="afii10040" horiz-adv-x="1229" unicode="Ц" d="M1032 229h166v-647h-264v418h-805v1462h272v-1222h359v1222h272v-1233z"/>
<glyph glyph-name="afii10041" horiz-adv-x="1155" unicode="Ч" d="M1026 0h-272v567q-140 -86 -283 -86q-165 0 -255.5 100.5t-90.5 280.5v600h272v-540q0 -105 31.5 -153t103.5 -48q60 0 113 20.5t109 55.5v665h272v-1462z"/>
<glyph glyph-name="afii10042" horiz-adv-x="1704" unicode="Ш" d="M987 240h316v1222h272v-1462h-1446v1462h272v-1222h316v1222h270v-1222z"/>
<glyph glyph-name="afii10043" horiz-adv-x="1772" unicode="Щ" d="M987 240h316v1222h270v-1233h166v-647h-264v418h-1346v1462h272v-1222h316v1222h270v-1222z"/>
<glyph glyph-name="afii10044" horiz-adv-x="1155" unicode="Ъ" d="M575 236h66q182 0 182 219q0 106 -44.5 152t-151.5 46h-52v-417zM1098 465q0 -221 -117 -343t-332 -122h-346v1223h-274v239h546v-571h68q455 0 455 -426z"/>
<glyph glyph-name="afii10045" horiz-adv-x="1518" unicode="Ы" d="M1389 0h-273v1462h273v-1462zM401 236h68q182 0 182 219q0 106 -44.5 152t-151.5 46h-54v-417zM129 0v1462h272v-571h70q455 0 455 -426q0 -221 -117 -343t-332 -122h-348z"/>
<glyph glyph-name="afii10046" horiz-adv-x="983" unicode="Ь" d="M401 236h68q182 0 182 219q0 106 -44.5 152t-151.5 46h-54v-417zM926 465q0 -221 -117 -343t-332 -122h-348v1462h272v-571h70q455 0 455 -426z"/>
<glyph glyph-name="afii10047" d="M344 1245q-99 0 -215 -82l-92 221q72 47 146.5 74t168.5 27q245 0 378.5 -194.5t133.5 -551.5t-135.5 -558t-382.5 -201q-169 0 -274 71v242q125 -74 254 -74q233 0 256 406h-383v235h381q-26 385 -236 385z" unicode="Э"/>
<glyph glyph-name="afii10048" horiz-adv-x="1677" unicode="Ю" d="M889 733q0 -512 213 -512t213 512t-211 512q-215 0 -215 -512zM1593 733q0 -362 -127 -557.5t-364 -195.5q-222 0 -348.5 169t-141.5 492h-211v-641h-272v1462h272v-581h213q26 294 150.5 449t339.5 155q237 0 363 -195.5t126 -556.5z"/>
<glyph glyph-name="afii10049" horiz-adv-x="1024" unicode="Я" d="M623 1227h-66q-93 0 -137.5 -47.5t-44.5 -159.5q0 -108 40.5 -162.5t137.5 -54.5h70v424zM524 569l-227 -569h-293l279 639q-97 60 -141 151.5t-44 223.5q0 448 445 448h352v-1462h-272v569h-99z"/>
<glyph glyph-name="afii10065" horiz-adv-x="956" unicode="а" d="M428 188q73 0 116.5 65.5t43.5 174.5v94l-82 -4q-91 -5 -133.5 -52t-42.5 -140q0 -138 98 -138zM659 0l-53 152h-6q-59 -98 -122 -135t-159 -37q-123 0 -193.5 92t-70.5 256q0 176 96.5 261.5t288.5 94.5l148 6v80q0 156 -135 156q-100 0 -230 -78l-92 184 q166 105 361 105q177 0 269.5 -101.5t92.5 -287.5v-748h-195z"/>
<glyph glyph-name="afii10066" horiz-adv-x="1012" unicode="б" d="M516 207q150 0 150 315q0 305 -136 305q-59 0 -110 -47.5t-74 -120.5q0 -452 170 -452zM74 645q0 380 108.5 580t354.5 272q128 36 370 70l31 -234l-177 -28q-169 -28 -252.5 -72.5t-125 -132t-49.5 -232.5h8q47 84 114 127t146 43q160 0 248 -129t88 -360 q0 -268 -114 -418.5t-318 -150.5q-208 0 -320 173t-112 492z"/>
<glyph glyph-name="afii10067" horiz-adv-x="991" unicode="в" d="M635 801q0 110 -146 110h-110v-235h80q88 0 132 28.5t44 96.5zM664 346q0 71 -46 102t-139 31h-100v-280h104q181 0 181 147zM907 825q0 -94 -55.5 -156.5t-161.5 -80.5v-8q117 -15 183.5 -80.5t66.5 -169.5q0 -160 -113 -245t-323 -85h-391v1114h389q405 0 405 -289z "/>
<glyph glyph-name="afii10068" horiz-adv-x="729" unicode="г" d="M692 1114v-215h-313v-899h-266v1114h579z"/>
<glyph glyph-name="afii10069" horiz-adv-x="1094" unicode="д" d="M1065 -397h-264v397h-508v-397h-264v606h67q80 161 127 394t60 511h637v-905h145v-606zM651 209v694h-131q-38 -432 -145 -694h276z"/>
<glyph glyph-name="afii10070" horiz-adv-x="942" unicode="е" d="M485 930q-57 0 -94 -60.5t-43 -187.5h270q-2 122 -37 185t-96 63zM524 -20q-209 0 -329.5 148.5t-120.5 420.5q0 276 109 431t304 155q182 0 287 -132.5t105 -371.5v-142h-535q3 -149 61 -221.5t160 -72.5q130 0 266 81v-219q-128 -77 -307 -77z"/>
<glyph glyph-name="afii10072" horiz-adv-x="1405" unicode="ж" d="M575 580v534h256v-534l279 534h276l-299 -528l318 -586h-289l-285 573v-573h-256v573l-286 -573h-289l317 586l-297 528h277z"/>
<glyph glyph-name="afii10073" horiz-adv-x="864" unicode="з" d="M340 680q91 0 135.5 29t44.5 100q0 115 -153 115q-54 0 -100 -15.5t-99 -48.5l-96 193q139 82 309 82q177 0 282 -79t105 -216q0 -191 -211 -250v-8q116 -27 177 -99t61 -184q0 -148 -112.5 -233.5t-311.5 -85.5q-92 0 -175.5 20.5t-140.5 52.5v223q139 -77 291 -77 q182 0 182 135q0 72 -43.5 109.5t-144.5 37.5h-109v199h109z"/>
<glyph glyph-name="afii10074" horiz-adv-x="1137" unicode="и" d="M360 1114v-516q0 -96 -24 -319l362 835h326v-1114h-248v524q0 118 23 318l-363 -842h-323v1114h247z"/>
<glyph glyph-name="afii10075" horiz-adv-x="1137" unicode="й" d="M360 1114v-516q0 -96 -24 -319l362 835h326v-1114h-248v524q0 118 23 318l-363 -842h-323v1114h247zM933 1565q-19 -168 -109 -246t-264 -78q-170 1 -255 77t-101 247h221q11 -100 43 -135t98 -35t98 40t44 130h225z"/>
<glyph glyph-name="afii10076" horiz-adv-x="965" unicode="к" d="M664 1114h280l-305 -528l324 -586h-293l-291 573v-573h-266v1114h266v-532z"/>
<glyph glyph-name="afii10077" horiz-adv-x="1032" unicode="л" d="M920 0h-267v899h-149q-20 -339 -64.5 -538t-119 -289t-197.5 -90q-75 0 -123 22v219q30 -10 61 -10q84 0 131 214.5t72 686.5h656v-1114z"/>
<glyph glyph-name="afii10078" horiz-adv-x="1374" unicode="м" d="M1264 0h-238v905q-29 -162 -82 -364l-145 -541h-226l-145 543q-47 175 -82 362v-905h-233v1114h383l135 -520q44 -174 53 -324q4 51 21.5 143t39.5 181l138 520h381v-1114z"/>
<glyph glyph-name="afii10079" horiz-adv-x="1059" unicode="н" d="M379 1114v-434h301v434h268v-1114h-268v467h-301v-467h-266v1114h266z"/>
<glyph glyph-name="afii10080" horiz-adv-x="1012" unicode="о" d="M346 559q0 -174 38 -263t122 -89q160 0 160 352q0 175 -38.5 261.5t-121.5 86.5q-84 0 -122 -86.5t-38 -261.5zM938 559q0 -274 -116 -426.5t-318 -152.5q-128 0 -226 70t-151 201.5t-53 307.5q0 271 115 423.5t319 152.5q197 0 313.5 -155.5t116.5 -420.5z"/>
<glyph glyph-name="afii10081" horiz-adv-x="1061" unicode="п" d="M948 1114v-1114h-268v899h-301v-899h-266v1114h835z"/>
<glyph glyph-name="afii10082" horiz-adv-x="1016" unicode="р" d="M528 909q-78 0 -112.5 -72.5t-36.5 -240.5v-35q0 -184 35 -268t116 -84q140 0 140 354q0 174 -34.5 260t-107.5 86zM610 -20q-72 0 -127.5 32.5t-103.5 114.5h-14q16 -136 16 -164v-455h-268v1606h206l46 -145h12q83 166 241 166q152 0 238 -150.5t86 -425.5 q0 -271 -89 -425t-243 -154z"/>
<glyph glyph-name="afii10083" horiz-adv-x="760" unicode="с" d="M481 -20q-199 0 -303 145t-104 426q0 294 98.5 439t304.5 145q62 0 130 -18t122 -52l-76 -207q-83 49 -147 49q-85 0 -122.5 -88.5t-37.5 -265.5q0 -173 37 -258.5t121 -85.5q100 0 209 70v-234q-105 -65 -232 -65z"/>
<glyph glyph-name="afii10084" horiz-adv-x="836" unicode="т" d="M799 1114v-215h-248v-899h-266v899h-248v215h762z"/>
<glyph glyph-name="afii10085" horiz-adv-x="913" unicode="у" d="M0 1114h276l154 -629q23 -84 37 -235h6q1 24 9 85.5t13 96.5t138 682h280l-319 -1194q-58 -220 -154 -316t-256 -96q-79 0 -141 17v223q41 -12 92 -12q134 0 176 176l19 70z"/>
<glyph glyph-name="afii10086" horiz-adv-x="1337" unicode="ф" d="M791 193q99 2 156 99.5t57 266.5q0 173 -55.5 266.5t-157.5 96.5v-729zM334 559q0 -172 56.5 -267.5t156.5 -98.5v729q-100 -3 -156.5 -96.5t-56.5 -266.5zM547 -20q-221 2 -347 154t-126 425t124.5 422.5t348.5 153.5v421h244v-421q230 -4 351.5 -151.5t121.5 -424.5 q0 -272 -124 -424.5t-349 -154.5v-472h-244v472z"/>
<glyph glyph-name="afii10087" horiz-adv-x="889" unicode="х" d="M305 569l-278 545h276l148 -340l137 340h274l-280 -545l292 -569h-278l-158 356l-147 -356h-277z"/>
<glyph glyph-name="afii10088" horiz-adv-x="1120" unicode="ц" d="M946 209h150v-606h-265v397h-718v1114h266v-899h299v899h268v-905z"/>
<glyph glyph-name="afii10089" horiz-adv-x="1036" unicode="ч" d="M369 1114v-414q0 -77 25 -112t79 -35q56 0 98.5 23t85.5 57v481h269v-1114h-269v451q-138 -107 -276 -107q-137 0 -208 84t-71 250v436h267z"/>
<glyph glyph-name="afii10090" horiz-adv-x="1532" unicode="ш" d="M1419 0h-1306v1114h266v-899h252v899h268v-899h252v899h268v-1114z"/>
<glyph glyph-name="afii10091" horiz-adv-x="1593" unicode="щ" d="M113 0v1114h266v-899h252v899h268v-899h252v899h268v-905h150v-606h-264v397h-1192z"/>
<glyph glyph-name="afii10092" horiz-adv-x="1147" unicode="ъ" d="M815 346q0 71 -43.5 102t-136.5 31h-74v-280h78q85 0 130.5 33.5t45.5 113.5zM561 678h92q223 0 328.5 -81t105.5 -245q0 -352 -442 -352h-352v899h-256v215h524v-436z"/>
<glyph glyph-name="afii10093" horiz-adv-x="1425" unicode="ы" d="M1315 0h-268v1114h268v-1114zM618 346q0 71 -43.5 102t-136.5 31h-59v-280h63q85 0 130.5 33.5t45.5 113.5zM379 678h80q221 0 326.5 -81t105.5 -245q0 -352 -440 -352h-338v1114h266v-436z"/>
<glyph glyph-name="afii10094" horiz-adv-x="967" unicode="ь" d="M633 346q0 71 -42.5 102t-135.5 31h-76v-280h80q83 0 128.5 33.5t45.5 113.5zM379 678h94q223 0 328.5 -81t105.5 -245q0 -352 -442 -352h-352v1114h266v-436z"/>
<glyph glyph-name="afii10095" horiz-adv-x="879" unicode="э" d="M324 -20q-152 0 -271 71v219q99 -48 153 -61.5t105 -13.5q95 0 152 71t67 201h-317v195h317q-3 130 -51.5 196t-136.5 66q-57 0 -104.5 -17t-104.5 -45l-74 199q144 74 291 74q455 0 455 -566q0 -282 -123 -435.5t-358 -153.5z"/>
<glyph glyph-name="afii10096" horiz-adv-x="1448" unicode="ю" d="M811 559q0 -352 145 -352q76 0 111 89t35 263q0 175 -35 261.5t-111 86.5q-75 0 -110 -86.5t-35 -261.5zM1374 559q0 -275 -109.5 -427t-310.5 -152q-178 0 -286 128.5t-125 358.5h-164v-467h-266v1114h266v-434h166q21 216 128.5 335.5t284.5 119.5q197 0 306.5 -150.5 t109.5 -425.5z"/>
<glyph glyph-name="afii10097" horiz-adv-x="1012" unicode="я" d="M352 766q0 -150 166 -150h115v299h-137q-144 0 -144 -149zM307 0h-301l277 457q-201 80 -201 311q0 163 108.5 254.5t298.5 91.5h410v-1114h-266v420h-96z"/>
<glyph glyph-name="uni0450" horiz-adv-x="942" unicode="ѐ" d="M485 930q-57 0 -94 -60.5t-43 -187.5h270q-2 122 -37 185t-96 63zM524 -20q-209 0 -329.5 148.5t-120.5 420.5q0 276 109 431t304 155q182 0 287 -132.5t105 -371.5v-142h-535q3 -149 61 -221.5t160 -72.5q130 0 266 81v-219q-128 -77 -307 -77zM445 1241 q-75 60 -176 160.5t-127 146.5v21h318q27 -60 80.5 -155.5t91.5 -145.5v-27h-187z"/>
<glyph glyph-name="afii10071" horiz-adv-x="942" unicode="ё" d="M485 930q-57 0 -94 -60.5t-43 -187.5h270q-2 122 -37 185t-96 63zM524 -20q-209 0 -329.5 148.5t-120.5 420.5q0 276 109 431t304 155q182 0 287 -132.5t105 -371.5v-142h-535q3 -149 61 -221.5t160 -72.5q130 0 266 81v-219q-128 -77 -307 -77zM554 1403q0 60 35 94.5 t98 34.5q61 0 97 -34t36 -95q0 -59 -35.5 -93t-97.5 -34t-97.5 34.5t-35.5 92.5zM156 1403q0 61 35 95t97 34t97.5 -35.5t35.5 -93.5q0 -57 -35.5 -92t-97.5 -35t-97 33.5t-35 93.5z"/>
<glyph glyph-name="afii10099" horiz-adv-x="1051" unicode="ђ" d="M948 -129q0 -174 -80.5 -268.5t-226.5 -94.5q-86 0 -141 25v221q46 -18 88 -18q47 0 69.5 41.5t22.5 128.5v721q0 231 -123 231q-87 0 -126.5 -84.5t-39.5 -267.5v-506h-266v1204h-125v187h125v165h266v-165h244v-187h-244v-57q0 -87 -12 -227h14q37 81 100.5 123 t145.5 42q153 0 231 -99t78 -290v-825z"/>
<glyph glyph-name="afii10100" horiz-adv-x="729" unicode="ѓ" d="M692 1114v-215h-313v-899h-266v1114h579zM236 1241v27q41 53 95 151t77 150h318v-21q-24 -43 -119 -138.5t-184 -168.5h-187z"/>
<glyph glyph-name="afii10101" horiz-adv-x="879" unicode="є" d="M522 -20q-228 0 -338 140t-110 427q0 289 115.5 438.5t340.5 149.5q154 0 295 -76l-77 -203q-57 31 -106.5 49.5t-104.5 18.5q-175 0 -191 -262h320v-195h-320q18 -272 193 -272q75 0 135.5 20.5t122.5 54.5v-219q-131 -71 -275 -71z"/>
<glyph glyph-name="afii10102" horiz-adv-x="766" unicode="ѕ" d="M711 326q0 -163 -95.5 -254.5t-281.5 -91.5q-165 0 -273 65v231q55 -38 128.5 -63t129.5 -25q62 0 94.5 30.5t32.5 80.5q0 51 -34 89t-125 93q-121 72 -173.5 153.5t-52.5 192.5q0 142 97.5 225t267.5 83q148 0 279 -78l-87 -191q-107 58 -188 58q-51 0 -76.5 -27 t-25.5 -66q0 -45 31.5 -80t117.5 -87q104 -63 146 -107t65 -100t23 -131z"/>
<glyph glyph-name="afii10103" horiz-adv-x="496" unicode="і" d="M104 1405q0 66 38.5 104.5t107.5 38.5q65 0 104 -38.5t39 -104.5q0 -68 -40 -105.5t-103 -37.5q-66 0 -106 37.5t-40 105.5zM381 0h-266v1114h266v-1114z"/>
<glyph glyph-name="afii10104" horiz-adv-x="496" unicode="ї" d="M381 0h-266v1114h266v-1114zM319 1403q0 60 35 94.5t98 34.5q61 0 97 -34t36 -95q0 -59 -35.5 -93t-97.5 -34t-97.5 34.5t-35.5 92.5zM-79 1403q0 61 35 95t97 34t97.5 -35.5t35.5 -93.5q0 -57 -35.5 -92t-97.5 -35t-97 33.5t-35 93.5z"/>
<glyph glyph-name="afii10105" horiz-adv-x="500" unicode="ј" d="M111 1405q0 66 38.5 104.5t106.5 38.5q67 0 105 -39t38 -104q0 -67 -39 -105t-104 -38t-105 37t-40 106zM80 -492q-84 0 -139 25v221q46 -18 86 -18q94 0 94 170v1208h266v-1243q0 -174 -80.5 -268.5t-226.5 -94.5z"/>
<glyph glyph-name="afii10106" horiz-adv-x="1509" unicode="љ" d="M1176 346q0 71 -43 102t-136 31h-75v-280h79q85 0 130 33.5t45 113.5zM922 678h94q223 0 328.5 -81t105.5 -245q0 -352 -442 -352h-355v899h-149q-20 -339 -64.5 -538t-119 -289t-197.5 -90q-75 0 -123 22v219q30 -10 61 -10q84 0 131 214.5t72 686.5h658v-436z"/>
<glyph glyph-name="afii10107" horiz-adv-x="1505" unicode="њ" d="M1171 346q0 71 -43 102t-137 31h-76v-280h80q85 0 130.5 33.5t45.5 113.5zM915 678h97q221 0 327.5 -81t106.5 -245q0 -352 -442 -352h-357v467h-268v-467h-266v1114h266v-434h268v434h268v-436z"/>
<glyph glyph-name="afii10108" horiz-adv-x="1038" unicode="ћ" d="M936 0h-268v627q0 231 -123 231q-87 0 -127 -84t-39 -268v-506h-266v1204h-125v187h125v165h266v-165h246v-187h-246l-6 -194l-6 -90h14q37 81 101 123t145 42q153 0 231 -99t78 -290v-696z"/>
<glyph glyph-name="afii10109" horiz-adv-x="965" unicode="ќ" d="M664 1114h280l-305 -528l324 -586h-293l-291 573v-573h-266v1114h266v-532zM379 1241v27q41 53 95 151t77 150h318v-21q-24 -43 -119 -138.5t-184 -168.5h-187z"/>
<glyph glyph-name="uni045D" horiz-adv-x="1137" unicode="ѝ" d="M360 1114v-516q0 -96 -24 -319l362 835h326v-1114h-248v524q0 118 23 318l-363 -842h-323v1114h247zM515 1241q-75 60 -176 160.5t-127 146.5v21h318q27 -60 80.5 -155.5t91.5 -145.5v-27h-187z"/>
<glyph glyph-name="afii10110" horiz-adv-x="913" unicode="ў" d="M0 1114h276l154 -629q23 -84 37 -235h6q1 24 9 86t13 96q5 35 138 682h280l-319 -1194q-58 -220 -154 -316t-256 -96q-79 0 -141 17v223q41 -12 92 -12q134 0 176 176l19 70zM822 1565q-20 -168 -110 -246t-263 -78q-170 1 -255 77t-101 247h221q10 -100 42 -135t99 -35 t99 40t43 130h225z"/>
<glyph glyph-name="afii10193" horiz-adv-x="1059" unicode="џ" d="M113 0v1114h266v-899h299v899h268v-1114h-284v-397h-265v397h-284z"/>
<glyph glyph-name="afii10050" horiz-adv-x="844" unicode="Ґ" d="M399 0h-270v1462h414v307h264v-542h-408v-1227z"/>
<glyph glyph-name="afii10098" horiz-adv-x="754" unicode="ґ" d="M379 0h-266v1114h340v307h264v-522h-338v-899z"/>
<glyph glyph-name="uni04B0" horiz-adv-x="961" unicode="Ұ" d="M481 885l195 577h285l-347 -876v-62h217v-239h-217v-285h-268v285h-217v239h217v51l-346 887h287z"/>
<glyph glyph-name="uni04B1" horiz-adv-x="911" unicode="ұ" d="M788 0v-211h-198v-281h-266v281h-203v211h192l-313 1114h274l144 -637q15 -74 27 -199l6 -57h8q5 127 35 256l143 637h274l-315 -1114h192z"/>
<glyph glyph-name="endash" horiz-adv-x="973" unicode="–" d="M70 442v217h833v-217h-833z"/>
<glyph glyph-name="emdash" horiz-adv-x="1579" unicode="—" d="M70 442v217h1437v-217h-1437z"/>
<glyph glyph-name="quoteleft" horiz-adv-x="420" unicode="‘" d="M35 961l-15 22q25 97 73 228t104 251h202q-31 -125 -61 -277t-39 -224h-264z"/>
<glyph glyph-name="quotesinglbase" horiz-adv-x="553" unicode="‚" d="M430 215q-52 -202 -176 -479h-203q65 266 101 502h264z"/>
<glyph glyph-name="quotedblleft" horiz-adv-x="854" unicode="“" d="M20 983q25 97 73 228t104 251h202q-31 -125 -61 -277t-39 -224h-264zM455 983q31 118 83 254.5t93 224.5h203q-66 -267 -101 -501h-264z"/>
<glyph glyph-name="quotedblright" horiz-adv-x="854" unicode="”" d="M834 1440q-49 -192 -177 -479h-202q62 246 100 501h264zM399 1440q-50 -197 -176 -479h-203q64 256 101 501h264z"/>
<glyph glyph-name="guilsinglleft" horiz-adv-x="653" unicode="‹" d="M74 569l307 447l199 -111l-220 -348l220 -348l-199 -111l-307 445v26z"/>
<glyph glyph-name="guilsinglright" horiz-adv-x="653" unicode="›" d="M580 543l-308 -445l-198 111l219 348l-219 348l198 111l308 -447v-26z"/>
<glyph glyph-name="fraction" horiz-adv-x="201" unicode="⁄" d="M573 1462l-743 -1462h-203l742 1462h204z"/>
<glyph glyph-name="foursuperior" horiz-adv-x="688" unicode="⁴" d="M365 905v170l4 187q-12 -33 -34.5 -84t-35.5 -72l-121 -201h187zM672 745h-111v-159h-196v159h-345v146l347 577h194v-563h111v-160z"/>
<glyph glyph-name="Euro" d="M659 1247q-85 0 -140.5 -77.5t-78.5 -223.5h295v-168h-309v-123h264v-168h-248q51 -268 232 -268q108 0 233 74v-242q-109 -71 -262 -71q-194 0 -315 129.5t-158 377.5h-131v168h117v123h-117v168h129q38 263 162 401t315 138q87 0 151.5 -16.5t129.5 -53.5l-90 -215 q-96 47 -179 47z" unicode="€"/>
</font>
</defs>
</svg>
